<svg width="670" height="170" viewBox="0 0 670 170" fill="none" xmlns="http://www.w3.org/2000/svg">
<path d="M60.561 169.449C57.7095 169.449 53.9668 168.796 49.333 167.489C44.7586 166.241 40.2436 161.934 35.7881 154.568C34.7187 152.607 34.1841 150.617 34.1841 148.597C34.1841 147.587 34.4514 146.072 34.9861 144.052C35.5802 141.973 37.303 140.042 40.1545 138.26C42.115 137.191 44.1051 136.656 46.125 136.656C47.1349 136.656 48.6498 136.953 50.6697 137.547C52.7489 138.082 54.6797 139.775 56.4619 142.627C57.7689 144.587 59.462 145.567 61.5413 145.567C65.2245 145.567 69.591 143.31 74.6406 138.795C78.2051 135.646 81.0566 132.201 83.1953 128.458C84.9181 125.547 85.7795 122.903 85.7795 120.527C85.7795 116.131 82.9577 113.933 77.314 113.933C73.6307 113.933 67.4523 114.913 58.7788 116.874C47.0755 119.547 37.9862 120.884 31.5107 120.884C28.4215 120.884 24.7383 120.527 20.4609 119.814C16.243 119.101 12.2033 116.666 8.3418 112.507C3.11393 106.21 0.5 98.4275 0.5 89.1599C0.5 89.0411 0.529704 86.6054 0.589111 81.8528C0.648519 77.0408 2.78719 69.496 7.00513 59.2185C11.2231 48.941 16.8965 39.317 24.0254 30.3464C31.2137 21.3759 39.1743 14.1579 47.9072 8.6924C56.3431 3.52394 64.8978 0.93971 73.5713 0.93971C81.7101 0.93971 89.0172 3.43483 95.4927 8.42506C101.374 12.9994 105.651 19.3263 108.325 27.4058C109.929 32.2178 110.731 37.5051 110.731 43.2676C110.731 47.1885 110.374 51.3173 109.661 55.6541C109.008 58.9809 107.374 61.5354 104.76 63.3176C102.681 64.8028 100.364 65.5454 97.8096 65.5454C97.1561 65.5454 96.4729 65.486 95.76 65.3672C92.4332 64.6543 89.8787 62.9909 88.0964 60.377C86.6706 58.3571 85.9578 56.1293 85.9578 53.6936C85.9578 52.9807 86.0172 52.2381 86.136 51.4658C86.7895 47.5449 87.1162 44.2478 87.1162 41.5745C87.1162 35.6337 85.3043 32.6633 81.6804 32.6633C78.5912 32.6633 73.7792 35.6337 67.2444 41.5745C62.373 46.03 57.5609 51.2282 52.8083 57.169C48.0557 63.0503 44.3725 68.7237 41.7585 74.1892C40.1545 77.5754 39.3525 80.5161 39.3525 83.0112C39.3525 84.4964 39.6496 85.8331 40.2436 87.0212C41.8477 89.457 44.5804 90.7936 48.4419 91.0313C49.7489 91.0907 51.1152 91.1204 52.541 91.1204C55.3926 91.1204 58.5709 90.9718 62.0759 90.6748C66.2345 90.259 70.5415 90.051 74.9971 90.051H80.0764C82.8686 90.051 86.5815 90.7936 91.2153 92.2788C95.9085 93.764 100.067 96.467 103.691 100.388C108.028 105.438 110.196 111.527 110.196 118.656C110.196 124.597 108.681 130.864 105.651 137.458C102.265 144.29 97.6016 150.379 91.6609 155.726C85.7795 161.013 79.3338 164.875 72.3237 167.311C68.284 168.736 64.3631 169.449 60.561 169.449ZM222.668 169.004C219.936 169.004 216.995 168.38 213.846 167.132C201.49 161.37 194.153 148.33 191.836 128.012C191.063 121.181 190.677 114.349 190.677 107.517L190.766 101.546C189.697 106.952 187.648 113.19 184.618 120.26C181.588 127.27 177.727 134.042 173.033 140.577C168.4 147.053 163.172 152.162 157.35 155.904C152.894 158.815 148.201 160.271 143.27 160.271C141.726 160.271 140.151 160.122 138.547 159.825C124.468 156.617 117.428 146.934 117.428 130.775C117.428 126.676 118.26 120.913 119.923 113.487C121.646 106.002 125.567 97.477 131.686 87.9124C137.864 78.2883 145.201 70.5951 153.696 64.8325C160.766 60.0799 168.192 57.7036 175.974 57.7036C181.915 57.7036 187.41 59.1888 192.46 62.1592C196.321 58.9512 201.133 57.3175 206.896 57.2581C212.658 57.2581 217.916 58.5056 222.668 61.0007C227.421 63.4365 230.243 66.7633 231.134 70.9812C231.312 72.11 231.401 73.4466 231.401 74.9912C231.401 78.9121 230.629 86.9618 229.084 99.1404C227.005 115.18 225.965 126.795 225.965 133.983C225.965 137.191 226.203 140.904 226.678 145.122C227.154 149.28 228.817 152.043 231.669 153.409C235.233 155.132 237.015 157.122 237.015 159.38C237.015 159.914 236.688 161.073 236.035 162.855C235.441 164.637 232.946 166.33 228.55 167.934C226.708 168.647 224.748 169.004 222.668 169.004ZM145.498 135.854C150.191 135.854 155.538 130.27 161.538 119.101C165.815 111.081 170.39 100.804 175.261 88.2688C176.568 84.8232 177.459 82.6845 177.934 81.8528L176.687 81.7637C171.994 81.7637 167.093 84.1103 161.984 88.8035C156.934 93.4373 152.419 99.1998 148.439 106.091C144.518 112.923 141.963 119.22 140.775 124.983C140.478 126.527 140.329 127.923 140.329 129.171C140.329 132.438 141.458 134.577 143.716 135.587C144.31 135.765 144.904 135.854 145.498 135.854ZM355.904 162.766C355.309 162.766 354.092 162.647 352.25 162.409C350.408 162.172 348.448 160.716 346.369 158.043C341.26 150.973 338.259 143.043 337.368 134.25C336.953 130.27 336.745 126.29 336.745 122.309C336.745 117.616 337.042 112.923 337.636 108.23C335.438 112.151 332.764 115.715 329.616 118.923C326.764 121.775 323.2 123.2 318.922 123.2H317.675C308.882 121.834 304.1 111.26 303.328 91.4768C303.268 88.9817 303.12 87.7044 302.882 87.645C301.397 88.1797 297.892 98.3384 292.367 118.121C287.971 133.211 285.149 142.062 283.902 144.676C280.099 151.568 275.555 156.498 270.268 159.469C267.178 161.192 264.119 162.053 261.089 162.053C258.891 162.053 255.95 161.31 252.267 159.825C248.643 158.34 245.198 153.439 241.93 145.122C239.197 137.636 237.267 128.399 236.138 117.408C235.425 110.517 235.069 103.655 235.069 96.8235C235.069 92.7244 235.306 86.9618 235.781 79.5359C236.257 72.0505 237.95 64.8325 240.861 57.8818C244.306 50.4559 249.772 46.7429 257.257 46.7429C259.871 46.7429 262.901 47.4855 266.347 48.9707C269.792 50.3965 272.644 53.1886 274.901 57.3472C276.089 59.5453 276.684 61.9513 276.684 64.5652C276.684 66.8821 276.208 69.3475 275.258 71.9614C273.357 77.4269 272.406 84.7044 272.406 93.7937C272.406 98.4275 272.525 102.735 272.763 106.715C276.921 94.6551 281.02 85.0905 285.06 78.021C290.704 68.2188 296.942 63.3176 303.773 63.3176C304.724 63.3176 306.447 63.6147 308.942 64.2087C311.437 64.7434 314.229 66.9415 317.318 70.803C320.408 74.6051 322.606 79.328 323.913 84.9717C326.526 80.8726 329.378 77.1002 332.467 73.6545C338.052 67.2979 344.052 64.1196 350.468 64.1196C357.656 64.1196 362.112 68.5752 363.834 77.4863C364.191 79.5656 364.369 81.734 364.369 83.9915C364.369 87.1995 363.864 92.3976 362.854 99.5859C361.428 108.497 360.716 116.666 360.716 124.092C360.716 124.804 360.716 127.151 360.716 131.131C360.775 135.052 362.32 139.181 365.349 143.518C366.953 145.835 367.755 148.27 367.755 150.825C367.755 151.36 367.637 152.548 367.399 154.389C367.161 156.231 365.735 158.221 363.122 160.36C360.864 161.964 358.458 162.766 355.904 162.766ZM422.127 159.38C419.157 159.38 414.909 158.934 409.384 158.043C403.919 157.152 398.364 153.944 392.72 148.419C390.522 145.983 389.423 143.25 389.423 140.221V137.636C389.423 135.973 390.611 133.953 392.988 131.577C395.423 129.319 398.156 128.191 401.186 128.191H403.77C405.433 128.191 407.453 129.349 409.83 131.666C412.265 133.983 414.998 135.141 418.028 135.141C418.147 135.141 419.008 135.141 420.612 135.141C422.216 135.082 424.295 134.31 426.85 132.824C429.404 131.339 430.979 129.646 431.573 127.745C431.989 126.082 432.197 124.507 432.197 123.022C432.197 119.577 430.89 116.279 428.276 113.131C424.236 108.081 415.533 103.032 402.166 97.9819C397.532 96.2591 393.196 94.3581 389.156 92.2788C385.116 90.1996 381.76 87.6153 379.086 84.5261C376.413 81.3775 374.868 77.3081 374.452 72.3179V71.9614C374.452 66.1395 377.66 60.8225 384.076 56.0105C390.552 51.1985 398.572 47.634 408.137 45.3171C413.958 43.8914 419.662 43.1785 425.246 43.1785C428.929 43.1785 433.919 43.7131 440.217 44.7825C446.573 45.7924 452.306 49.6242 457.415 56.2778C458.9 58.4759 459.643 60.7631 459.643 63.1394C459.643 63.8523 459.465 65.1593 459.108 67.0603C458.811 68.9614 457.326 70.9218 454.653 72.9417C452.455 74.4268 450.167 75.1694 447.791 75.1694C447.138 75.1694 445.831 75.0209 443.87 74.7239C441.969 74.4268 440.009 72.912 437.989 70.1792C436.385 68.2188 433.89 67.2385 430.503 67.2385C427.89 67.2385 425.276 67.8029 422.662 68.9316C420.048 70.001 418.266 71.5159 417.315 73.4763C417.137 74.0704 417.048 74.6348 417.048 75.1694C417.048 76.5358 417.761 77.9319 419.186 79.3577C421.444 81.5558 426.196 84.1103 433.444 87.0212C434.989 87.6153 436.236 88.15 437.187 88.6253C450.969 95.0413 460.207 102.319 464.9 110.458C467.217 114.378 468.376 118.834 468.376 123.824L468.287 126.765C467.277 134.369 463.891 140.785 458.128 146.013C452.425 151.181 445.534 154.924 437.454 157.241C432.345 158.667 427.236 159.38 422.127 159.38ZM519.183 169.627C517.341 169.627 515.47 169.449 513.569 169.093C509.351 168.083 506.084 165.885 503.767 162.499C501.45 159.112 499.697 155.073 498.509 150.379C497.38 145.686 496.46 140.874 495.747 135.943C495.093 131.844 494.351 128.012 493.519 124.448C492.212 124.092 490.964 123.497 489.776 122.666C482.41 117.26 478.162 111.111 477.033 104.22C476.736 102.497 476.588 100.744 476.588 98.9622C476.588 93.8531 478.103 88.3876 481.132 82.5657C484.222 76.6843 489.063 71.3377 495.658 66.5256C502.252 61.6542 509.559 58.5947 517.579 57.3472C519.48 57.0501 521.381 56.9016 523.282 56.9016C529.401 56.9016 535.49 58.4462 541.55 61.5354C554.62 69.0208 561.154 82.5063 561.154 101.992C561.154 104.428 560.857 108.735 560.263 114.913C559.669 121.091 557.857 128.369 554.828 136.745C552.808 142.448 549.867 148.033 546.006 153.498C542.144 158.904 537.451 163.152 531.926 166.241C528.005 168.499 523.757 169.627 519.183 169.627ZM518.916 126.676C520.044 123.408 521.084 118.804 522.035 112.864C523.104 106.091 523.639 99.6751 523.639 93.6155C523.639 88.5658 523.104 84.7341 522.035 82.1201C521.322 80.932 520.282 80.3379 518.916 80.3379C518.262 80.3379 517.074 80.6349 515.351 81.229C513.628 81.8231 511.401 83.3677 508.668 85.8628C505.995 88.3579 503.915 91.0313 502.43 93.8828C501.598 95.5462 501.183 97.0611 501.183 98.4275C501.183 99.4968 501.42 100.507 501.895 101.457L503.232 101.368C505.905 101.368 508.371 102.2 510.628 103.863C512.945 105.527 514.43 107.933 515.084 111.081C516.094 116.309 517.371 121.507 518.916 126.676ZM590.308 166.419C581.753 166.419 575.812 162.469 572.485 154.568C570.406 148.567 569.129 140.221 568.654 129.527C568.357 123.408 568.208 117.23 568.208 110.992C568.208 106.358 568.357 100.091 568.654 92.1897C568.951 83.1003 569.337 74.6051 569.812 66.7039C570.287 60.6443 572.456 56.159 576.317 53.2481C579.822 50.6341 583.773 49.3272 588.169 49.3272C588.525 49.3272 590.011 49.3866 592.625 49.5054C595.238 49.5648 598.268 51.1985 601.714 54.4065C605.219 57.5551 606.971 62.0404 606.971 67.8623C606.971 69.4069 606.734 73.1199 606.259 79.0012C605.486 89.1005 604.892 100.18 604.476 112.24C605.546 110.636 606.585 109.002 607.595 107.339C611.635 100.982 615.734 94.8036 619.893 88.8035C624.051 82.7439 628.418 77.3378 632.992 72.5852C640.24 65.2781 646.388 61.6245 651.438 61.6245C655.656 61.6245 659.012 63.9117 661.508 68.4861C664.062 73.0011 665.666 79.2686 666.32 87.2886C666.557 91.6847 666.676 96.17 666.676 100.744C666.676 105.853 666.527 111.022 666.23 116.25C665.993 121.418 665.874 126.23 665.874 130.686C665.874 132.112 665.904 134.577 665.963 138.082C666.023 141.528 666.735 144.647 668.102 147.439C669.052 149.34 669.528 151.271 669.528 153.231C669.528 154.3 669.231 155.875 668.636 157.954C668.042 160.033 666.26 161.934 663.29 163.657C661.389 164.608 659.488 165.083 657.587 165.083C656.458 165.083 654.854 164.786 652.775 164.192C650.695 163.598 648.794 161.815 647.072 158.845C644.339 153.023 642.824 144.884 642.527 134.428C642.349 129.913 642.26 125.488 642.26 121.151C642.26 115.388 642.408 109.804 642.705 104.398C642.824 100.596 642.883 97.2393 642.883 94.3284C635.576 104.012 628.536 114.349 621.764 125.339C614.991 136.33 609.882 146.429 606.437 155.637C603.526 162.825 598.149 166.419 590.308 166.419Z" fill="white" fill-opacity="0.1"/>
</svg>
