<svg width="110" height="28" viewBox="0 0 110 28" fill="none" xmlns="http://www.w3.org/2000/svg">
<path d="M9.87305 27.7578C9.4043 27.7578 8.78906 27.6504 8.02734 27.4355C7.27539 27.2305 6.5332 26.5225 5.80078 25.3115C5.625 24.9893 5.53711 24.6621 5.53711 24.3301C5.53711 24.1641 5.58105 23.915 5.66895 23.583C5.7666 23.2412 6.0498 22.9238 6.51855 22.6309C6.84082 22.4551 7.16797 22.3672 7.5 22.3672C7.66602 22.3672 7.91504 22.416 8.24707 22.5137C8.58887 22.6016 8.90625 22.8799 9.19922 23.3486C9.41406 23.6709 9.69238 23.832 10.0342 23.832C10.6396 23.832 11.3574 23.4609 12.1875 22.7188C12.7734 22.2012 13.2422 21.6348 13.5938 21.0195C13.877 20.541 14.0186 20.1064 14.0186 19.7158C14.0186 18.9932 13.5547 18.6318 12.627 18.6318C12.0215 18.6318 11.0059 18.793 9.58008 19.1152C7.65625 19.5547 6.16211 19.7744 5.09766 19.7744C4.58984 19.7744 3.98438 19.7158 3.28125 19.5986C2.58789 19.4814 1.92383 19.0811 1.28906 18.3975C0.429687 17.3623 0 16.083 0 14.5596C0 14.54 0.00488281 14.1396 0.0146484 13.3584C0.0244141 12.5674 0.375977 11.3271 1.06934 9.6377C1.7627 7.94824 2.69531 6.36621 3.86719 4.8916C5.04883 3.41699 6.35742 2.23047 7.79297 1.33203C9.17969 0.482422 10.5859 0.0576172 12.0117 0.0576172C13.3496 0.0576172 14.5508 0.467773 15.6152 1.28809C16.582 2.04004 17.2852 3.08008 17.7246 4.4082C17.9883 5.19922 18.1201 6.06836 18.1201 7.01562C18.1201 7.66016 18.0615 8.33887 17.9443 9.05176C17.8369 9.59863 17.5684 10.0186 17.1387 10.3115C16.7969 10.5557 16.416 10.6777 15.9961 10.6777C15.8887 10.6777 15.7764 10.668 15.6592 10.6484C15.1123 10.5312 14.6924 10.2578 14.3994 9.82812C14.165 9.49609 14.0479 9.12988 14.0479 8.72949C14.0479 8.6123 14.0576 8.49023 14.0771 8.36328C14.1846 7.71875 14.2383 7.17676 14.2383 6.7373C14.2383 5.76074 13.9404 5.27246 13.3447 5.27246C12.8369 5.27246 12.0459 5.76074 10.9717 6.7373C10.1709 7.46973 9.37988 8.32422 8.59863 9.30078C7.81738 10.2676 7.21191 11.2002 6.78223 12.0986C6.51855 12.6553 6.38672 13.1387 6.38672 13.5488C6.38672 13.793 6.43555 14.0127 6.5332 14.208C6.79688 14.6084 7.24609 14.8281 7.88086 14.8672C8.0957 14.877 8.32031 14.8818 8.55469 14.8818C9.02344 14.8818 9.5459 14.8574 10.1221 14.8086C10.8057 14.7402 11.5137 14.7061 12.2461 14.7061H13.0811C13.54 14.7061 14.1504 14.8281 14.9121 15.0723C15.6836 15.3164 16.3672 15.7607 16.9629 16.4053C17.6758 17.2354 18.0322 18.2363 18.0322 19.4082C18.0322 20.3848 17.7832 21.415 17.2852 22.499C16.7285 23.6221 15.9619 24.623 14.9854 25.502C14.0186 26.3711 12.959 27.0059 11.8066 27.4062C11.1426 27.6406 10.498 27.7578 9.87305 27.7578ZM36.5208 27.6846C36.0716 27.6846 35.5882 27.582 35.0706 27.377C33.0394 26.4297 31.8333 24.2861 31.4525 20.9463C31.3255 19.8232 31.262 18.7002 31.262 17.5771L31.2767 16.5957C31.1009 17.4844 30.764 18.5098 30.2659 19.6719C29.7679 20.8242 29.1331 21.9375 28.3616 23.0117C27.5999 24.0762 26.7405 24.916 25.7835 25.5312C25.0511 26.0098 24.2796 26.249 23.4691 26.249C23.2152 26.249 22.9564 26.2246 22.6927 26.1758C20.3782 25.6484 19.221 24.0566 19.221 21.4004C19.221 20.7266 19.3577 19.7793 19.6312 18.5586C19.9144 17.3281 20.5589 15.9268 21.5648 14.3545C22.5804 12.7725 23.7864 11.5078 25.1829 10.5605C26.345 9.7793 27.5657 9.38867 28.845 9.38867C29.8216 9.38867 30.7249 9.63281 31.555 10.1211C32.1898 9.59375 32.9808 9.3252 33.928 9.31543C34.8753 9.31543 35.7396 9.52051 36.5208 9.93066C37.3021 10.3311 37.7659 10.8779 37.9124 11.5713C37.9417 11.7568 37.9564 11.9766 37.9564 12.2305C37.9564 12.875 37.8294 14.1982 37.5755 16.2002C37.2337 18.8369 37.0628 20.7461 37.0628 21.9277C37.0628 22.4551 37.1019 23.0654 37.18 23.7588C37.2581 24.4424 37.5316 24.8965 38.0003 25.1211C38.5863 25.4043 38.8792 25.7314 38.8792 26.1025C38.8792 26.1904 38.8255 26.3809 38.7181 26.6738C38.6204 26.9668 38.2103 27.2451 37.4876 27.5088C37.1849 27.626 36.8626 27.6846 36.5208 27.6846ZM23.8353 22.2354C24.6068 22.2354 25.4857 21.3174 26.472 19.4814C27.1751 18.1631 27.9271 16.4736 28.7279 14.4131C28.9427 13.8467 29.0892 13.4951 29.1673 13.3584L28.9622 13.3438C28.1907 13.3438 27.3851 13.7295 26.5452 14.501C25.7152 15.2627 24.973 16.21 24.3187 17.3428C23.6741 18.4658 23.2542 19.501 23.0589 20.4482C23.0101 20.7021 22.9857 20.9316 22.9857 21.1367C22.9857 21.6738 23.1712 22.0254 23.5423 22.1914C23.64 22.2207 23.7376 22.2354 23.8353 22.2354ZM58.4225 26.6592C58.3248 26.6592 58.1246 26.6396 57.8219 26.6006C57.5192 26.5615 57.1969 26.3223 56.8551 25.8828C56.0153 24.7207 55.5221 23.417 55.3756 21.9717C55.3073 21.3174 55.2731 20.6631 55.2731 20.0088C55.2731 19.2373 55.3219 18.4658 55.4196 17.6943C55.0582 18.3389 54.6188 18.9248 54.1012 19.4521C53.6325 19.9209 53.0465 20.1553 52.3434 20.1553H52.1383C50.693 19.9307 49.9069 18.1924 49.7799 14.9404C49.7702 14.5303 49.7457 14.3203 49.7067 14.3105C49.4625 14.3984 48.8864 16.0684 47.9782 19.3203C47.2555 21.8008 46.7916 23.2559 46.5866 23.6855C45.9616 24.8184 45.2145 25.6289 44.3454 26.1172C43.8375 26.4004 43.3346 26.542 42.8366 26.542C42.4752 26.542 41.9918 26.4199 41.3864 26.1758C40.7907 25.9316 40.2243 25.126 39.6871 23.7588C39.2379 22.5283 38.9205 21.0098 38.735 19.2031C38.6178 18.0703 38.5592 16.9424 38.5592 15.8193C38.5592 15.1455 38.5983 14.1982 38.6764 12.9775C38.7545 11.7471 39.0329 10.5605 39.5114 9.41797C40.0778 8.19727 40.9762 7.58691 42.2067 7.58691C42.6364 7.58691 43.1344 7.70898 43.7008 7.95312C44.2672 8.1875 44.736 8.64648 45.1071 9.33008C45.3024 9.69141 45.4 10.0869 45.4 10.5166C45.4 10.8975 45.3219 11.3027 45.1657 11.7324C44.8532 12.6309 44.6969 13.8271 44.6969 15.3213C44.6969 16.083 44.7164 16.791 44.7555 17.4453C45.4391 15.4629 46.1129 13.8906 46.777 12.7285C47.7047 11.1172 48.7301 10.3115 49.8532 10.3115C50.0094 10.3115 50.2926 10.3604 50.7028 10.458C51.1129 10.5459 51.5719 10.9072 52.0797 11.542C52.5875 12.167 52.9489 12.9434 53.1637 13.8711C53.5934 13.1973 54.0621 12.5771 54.57 12.0107C55.4879 10.9658 56.4743 10.4434 57.5289 10.4434C58.7106 10.4434 59.443 11.1758 59.7262 12.6406C59.7848 12.9824 59.8141 13.3389 59.8141 13.71C59.8141 14.2373 59.7311 15.0918 59.5651 16.2734C59.3307 17.7383 59.2135 19.0811 59.2135 20.3018C59.2135 20.4189 59.2135 20.8047 59.2135 21.459C59.2233 22.1035 59.4772 22.7822 59.9752 23.4951C60.2389 23.876 60.3707 24.2764 60.3707 24.6963C60.3707 24.7842 60.3512 24.9795 60.3121 25.2822C60.2731 25.585 60.0387 25.9121 59.609 26.2637C59.2379 26.5273 58.8424 26.6592 58.4225 26.6592ZM69.3086 26.1025C68.8203 26.1025 68.122 26.0293 67.2138 25.8828C66.3154 25.7363 65.4023 25.209 64.4746 24.3008C64.1132 23.9004 63.9326 23.4512 63.9326 22.9531V22.5283C63.9326 22.2549 64.1279 21.9229 64.5185 21.5322C64.9189 21.1611 65.3681 20.9756 65.8662 20.9756H66.291C66.5644 20.9756 66.8964 21.166 67.2871 21.5469C67.6875 21.9277 68.1367 22.1182 68.6347 22.1182C68.6543 22.1182 68.7959 22.1182 69.0595 22.1182C69.3232 22.1084 69.665 21.9814 70.0849 21.7373C70.5048 21.4932 70.7636 21.2148 70.8613 20.9023C70.9296 20.6289 70.9638 20.3701 70.9638 20.126C70.9638 19.5596 70.749 19.0176 70.3193 18.5C69.6552 17.6699 68.2246 16.8398 66.0273 16.0098C65.2656 15.7266 64.5527 15.4141 63.8886 15.0723C63.2246 14.7305 62.6728 14.3057 62.2334 13.7979C61.7939 13.2803 61.54 12.6113 61.4716 11.791V11.7324C61.4716 10.7754 61.999 9.90137 63.0537 9.11035C64.1181 8.31934 65.4365 7.7334 67.0088 7.35254C67.9658 7.11816 68.9033 7.00098 69.8213 7.00098C70.4267 7.00098 71.247 7.08887 72.2822 7.26465C73.3271 7.43066 74.2695 8.06055 75.1093 9.1543C75.3535 9.51562 75.4755 9.8916 75.4755 10.2822C75.4755 10.3994 75.4463 10.6143 75.3877 10.9268C75.3388 11.2393 75.0947 11.5615 74.6552 11.8936C74.2939 12.1377 73.9179 12.2598 73.5273 12.2598C73.4199 12.2598 73.205 12.2354 72.8828 12.1865C72.5703 12.1377 72.248 11.8887 71.916 11.4395C71.6523 11.1172 71.2421 10.9561 70.6855 10.9561C70.2558 10.9561 69.8261 11.0488 69.3964 11.2344C68.9668 11.4102 68.6738 11.6592 68.5175 11.9814C68.4882 12.0791 68.4736 12.1719 68.4736 12.2598C68.4736 12.4844 68.5908 12.7139 68.8252 12.9482C69.1963 13.3096 69.9775 13.7295 71.1689 14.208C71.4228 14.3057 71.6279 14.3936 71.7841 14.4717C74.0498 15.5264 75.5683 16.7227 76.3398 18.0605C76.7207 18.7051 76.9111 19.4375 76.9111 20.2578L76.8964 20.7412C76.7304 21.9912 76.1738 23.0459 75.2265 23.9053C74.289 24.7549 73.1562 25.3701 71.8281 25.751C70.9882 25.9854 70.1484 26.1025 69.3086 26.1025ZM85.263 27.7871C84.9602 27.7871 84.6526 27.7578 84.3401 27.6992C83.6468 27.5332 83.1096 27.1719 82.7288 26.6152C82.3479 26.0586 82.0598 25.3945 81.8645 24.623C81.679 23.8516 81.5276 23.0605 81.4104 22.25C81.303 21.5762 81.1809 20.9463 81.0442 20.3604C80.8294 20.3018 80.6243 20.2041 80.429 20.0674C79.218 19.1787 78.5198 18.168 78.3343 17.0352C78.2854 16.752 78.261 16.4639 78.261 16.1709C78.261 15.3311 78.51 14.4326 79.0081 13.4756C79.5159 12.5088 80.3118 11.6299 81.3958 10.8389C82.4798 10.0381 83.6809 9.53516 84.9993 9.33008C85.3118 9.28125 85.6243 9.25684 85.9368 9.25684C86.9427 9.25684 87.9436 9.51074 88.9397 10.0186C91.0882 11.249 92.1624 13.4658 92.1624 16.6689C92.1624 17.0693 92.1136 17.7773 92.0159 18.793C91.9182 19.8086 91.6204 21.0049 91.1223 22.3818C90.7903 23.3193 90.3069 24.2373 89.6721 25.1357C89.0374 26.0244 88.2659 26.7227 87.3577 27.2305C86.7132 27.6016 86.0149 27.7871 85.263 27.7871ZM85.219 20.7266C85.4046 20.1895 85.5755 19.4326 85.7317 18.4561C85.9075 17.3428 85.9954 16.2881 85.9954 15.292C85.9954 14.4619 85.9075 13.832 85.7317 13.4023C85.6145 13.207 85.4436 13.1094 85.219 13.1094C85.1116 13.1094 84.9163 13.1582 84.6331 13.2559C84.3499 13.3535 83.9837 13.6074 83.5345 14.0176C83.095 14.4277 82.7532 14.8672 82.5091 15.3359C82.3723 15.6094 82.304 15.8584 82.304 16.083C82.304 16.2588 82.343 16.4248 82.4212 16.5811L82.6409 16.5664C83.0804 16.5664 83.4856 16.7031 83.8567 16.9766C84.2376 17.25 84.4817 17.6455 84.5891 18.1631C84.7552 19.0225 84.9651 19.877 85.219 20.7266ZM96.9547 27.2598C95.5484 27.2598 94.5719 26.6104 94.025 25.3115C93.6832 24.3252 93.4732 22.9531 93.3951 21.1953C93.3463 20.1895 93.3219 19.1738 93.3219 18.1484C93.3219 17.3867 93.3463 16.3564 93.3951 15.0576C93.4439 13.5635 93.5074 12.167 93.5855 10.8682C93.6637 9.87207 94.0201 9.13477 94.6549 8.65625C95.2311 8.22656 95.8805 8.01172 96.6031 8.01172C96.6617 8.01172 96.9059 8.02148 97.3355 8.04102C97.7652 8.05078 98.2633 8.31934 98.8297 8.84668C99.4059 9.36426 99.6939 10.1016 99.6939 11.0586C99.6939 11.3125 99.6549 11.9229 99.5768 12.8896C99.4498 14.5498 99.3521 16.3711 99.2838 18.3535C99.4596 18.0898 99.6305 17.8213 99.7965 17.5479C100.461 16.5029 101.134 15.4873 101.818 14.501C102.502 13.5049 103.219 12.6162 103.971 11.835C105.163 10.6338 106.173 10.0332 107.004 10.0332C107.697 10.0332 108.249 10.4092 108.659 11.1611C109.079 11.9033 109.342 12.9336 109.45 14.252C109.489 14.9746 109.508 15.7119 109.508 16.4639C109.508 17.3037 109.484 18.1533 109.435 19.0127C109.396 19.8623 109.377 20.6533 109.377 21.3857C109.377 21.6201 109.381 22.0254 109.391 22.6016C109.401 23.168 109.518 23.6807 109.743 24.1396C109.899 24.4521 109.977 24.7695 109.977 25.0918C109.977 25.2676 109.928 25.5264 109.831 25.8682C109.733 26.21 109.44 26.5225 108.952 26.8057C108.639 26.9619 108.327 27.04 108.014 27.04C107.829 27.04 107.565 26.9912 107.223 26.8936C106.881 26.7959 106.569 26.5029 106.286 26.0146C105.837 25.0576 105.588 23.7197 105.539 22.001C105.509 21.2588 105.495 20.5312 105.495 19.8184C105.495 18.8711 105.519 17.9531 105.568 17.0645C105.588 16.4395 105.597 15.8877 105.597 15.4092C104.396 17.001 103.239 18.7002 102.126 20.5068C101.012 22.3135 100.172 23.9736 99.6061 25.4873C99.1275 26.6689 98.2438 27.2598 96.9547 27.2598Z" fill="white"/>
</svg>
