<svg width="1440" height="130" viewBox="0 0 1440 130" fill="none" xmlns="http://www.w3.org/2000/svg">
<g clip-path="url(#clip0_264_1433)">
<path d="M1440 0V129.274H0L1440 0Z" fill="#24865D"/>
<g opacity="0.03" clip-path="url(#clip1_264_1433)">
<path d="M-50.0001 -125.129C-32.8677 -127.644 -16.3335 -125.32 -0.648752 -118.205C8.2285 -114.18 16.7109 -109.245 25.2652 -104.501C42.5531 -94.9183 59.8171 -85.2634 76.9853 -75.4647C82.1298 -72.5299 87.2863 -72.7216 92.718 -73.9674C94.7159 -74.4226 96.8096 -74.9257 98.8076 -74.77C103.067 -74.4465 107.099 -73.1049 109.025 -68.8764C110.975 -64.576 110.377 -60.1918 107.362 -56.5981C100.1 -47.9375 92.8854 -39.169 83.4818 -32.6406C77.4998 -28.4839 71.3982 -24.507 65.3923 -20.3982C54.3495 -12.8636 43.1872 -5.48463 32.3718 2.36148C28.0288 5.52388 24.3679 9.66855 20.5633 13.5377C17.4288 16.7241 13.7558 16.5564 11.1597 12.7231C8.67117 9.04566 8.88652 5.09264 10.4538 1.17558C13.2414 -5.83202 17.4766 -11.9532 23.4108 -16.5411C29.321 -21.105 35.5781 -25.3095 42.0028 -29.0948C48.9179 -33.1676 56.3715 -36.354 63.3345 -40.3549C70.9555 -44.7272 78.3014 -49.5786 85.731 -54.2862C86.9872 -55.0888 88.064 -56.1789 89.4159 -57.2929C63.9087 -65.4864 41.7156 -79.5016 19.2353 -92.9418C8.87455 -99.1348 -1.48623 -105.304 -13.0554 -109.101C-24.4092 -112.827 -35.9185 -114.18 -47.7628 -112.144C-48.4926 -112.012 -49.2583 -112.096 -50.012 -112.084C-50.0001 -116.432 -50.0001 -120.781 -50.0001 -125.129Z" fill="black"/>
<path d="M-50 -87.2637C-36.1218 -82.9992 -21.7531 -81.5139 -7.46815 -79.5134C-5.0275 -79.166 -2.57489 -78.4113 -0.301739 -77.4291C7.96535 -73.8714 9.99922 -65.6539 4.0651 -58.85C1.68427 -56.1188 -1.40242 -53.8788 -4.47716 -51.9023C-10.7702 -47.8415 -17.2906 -44.128 -23.6913 -40.2349C-25.1509 -39.3485 -26.5387 -38.3063 -27.8906 -36.5574C-25.5337 -36.3418 -23.1649 -35.9226 -20.808 -35.9585C-14.9456 -36.0663 -9.08328 -36.4137 -3.23291 -36.6413C1.54071 -36.833 6.38611 -36.8689 8.98229 -31.8378C11.5545 -26.8426 9.05407 -22.674 5.90755 -19.0804C1.55267 -14.0972 -2.9697 -9.20986 -7.77921 -4.68188C-23.3323 9.95621 -38.371 25.0016 -49.0788 43.7723C-49.2702 44.1197 -49.677 44.3473 -49.988 44.6228C-49.988 33.3029 -49.988 21.9829 -49.988 10.663C-38.2634 0.37317 -26.5387 -9.90463 -14.9695 -20.0626C-19.8748 -20.0626 -24.9594 -19.7871 -30.0082 -20.1225C-37.5575 -20.6256 -44.9273 -21.9194 -49.988 -28.5197C-49.988 -32.868 -49.988 -37.2283 -49.988 -41.5766C-38.73 -52.5252 -24.457 -58.6703 -10.8779 -66.0133C-16.9436 -66.8877 -22.9136 -67.2591 -28.8118 -68.0856C-35.8945 -69.0679 -42.9293 -70.4215 -49.9761 -71.6194C-50 -76.8062 -50 -82.0409 -50 -87.2637Z" fill="black"/>
<path d="M413.878 252.179C409.727 253.018 406.162 253.868 402.537 254.431C386.78 256.899 371.789 254.204 357.492 247.376C341.473 239.721 333.636 226.665 333.002 209.164C332.224 187.422 340.3 168.927 354.729 153.139C359.61 147.796 365.149 142.897 371.012 138.632C406.293 112.974 445.583 97.4852 488.952 92.2025C510.954 89.5313 532.98 86.836 554.79 82.9549C579.938 78.4868 603.196 68.4007 625.628 56.3261C635.08 51.2471 640.416 43.6046 641.074 33.0034C641.421 27.5051 640.99 21.9349 640.416 16.4367C640.189 14.2086 638.478 12.1722 637.736 9.94418C637.198 8.31506 636.444 6.19481 637.054 4.88912C637.676 3.55948 639.925 2.09805 641.337 2.21784C643.658 2.39752 646.194 3.39177 648.073 4.79329C651.794 7.57237 653.421 11.8488 654.545 16.233C657.608 28.2118 656.794 39.987 652.416 51.4986C648.755 61.1415 641.517 67.5861 632.879 72.6412C616.297 82.356 598.853 90.0464 580.405 95.5566C557.685 102.361 534.367 105.691 510.87 107.991C486.057 110.41 461.399 113.489 437.806 122.269C416.439 130.211 396.602 140.944 378.561 154.816C362.732 166.986 352.599 182.75 350.948 203.21C349.728 218.399 354.788 227.096 368.69 233.241C377.652 237.194 386.983 239.506 396.89 238.679C397.607 238.619 398.313 238.428 398.397 238.416C396.602 232.295 394.425 226.389 393.193 220.292C390.549 207.127 393.695 194.921 401.017 183.912C410.349 169.861 422.301 158.709 438.081 152.061C438.955 151.689 439.852 150.24 439.9 149.246C440.056 145.987 439.876 142.717 439.72 139.459C439.553 135.745 440.737 132.799 444.243 131.17C447.509 129.648 452.008 130.391 454.293 133.553C456.267 136.297 458.001 139.579 458.636 142.861C460.562 152.779 462.033 162.806 463.421 172.82C464.869 183.277 466.017 193.771 467.321 204.24C467.429 205.079 467.501 206.061 467.967 206.708C470.241 209.882 470.037 214.47 467.393 216.722C464.606 219.094 460.071 218.699 457.619 215.177C455.226 211.739 453.001 207.93 451.828 203.953C448.586 193.016 445.918 181.912 443.035 170.867C442.735 169.741 442.52 168.603 442.197 167.154C441.407 167.537 440.857 167.657 440.522 167.992C433.128 175.479 425.28 182.595 418.484 190.608C408.71 202.12 408.315 215.572 412.634 229.468C413.053 230.797 413.711 232.103 414.5 233.253C416.08 235.529 418.927 235.337 420.315 232.977C420.375 232.882 420.399 232.774 420.447 232.678C423.234 227.503 425.771 225.91 429.707 226.82C433.427 227.695 436.036 231.324 435.402 236.631C434.492 244.166 433.176 251.712 431.334 259.067C424.466 286.451 419.681 314.194 415.793 342.128C415.326 345.458 414.5 348.752 413.795 352.047C413.256 354.538 412.144 356.611 409.26 356.898C406.365 357.185 404.116 355.712 403.41 353.173C402.142 348.609 400.826 343.889 400.718 339.205C400.311 320.518 402.8 302.071 406.509 283.803C408.411 274.424 410.84 265.152 413.029 255.833C413.292 254.803 413.519 253.749 413.878 252.179Z" fill="black"/>
<path d="M809.921 265.955C808.737 268.938 807.839 271.741 806.535 274.328C805.183 277.023 803.796 279.85 801.786 282.03C797.167 287.014 790.85 286.774 785.969 282.042C782.823 278.988 780.741 275.43 779.664 271.202C775.249 253.76 773.682 236.056 774.891 218.112C775.154 214.147 775.465 210.182 775.788 205.702C774.603 206.432 773.85 206.792 773.204 207.307C766.013 213.116 758.787 218.878 751.692 224.796C749.371 226.736 747.326 229.024 745.256 231.252C741.451 235.361 737.025 236.655 732.694 234.81C728.482 233.001 726.03 229.084 726.867 223.526C727.777 217.429 729.081 211.296 731.079 205.486C736.678 189.195 746.153 174.916 755.198 160.422C763.752 146.706 772.964 133.493 785.682 123.264C792.107 118.101 799.022 113.537 805.817 108.865C807.373 107.799 809.347 107.068 811.213 106.793C813.654 106.421 815.759 107.523 816.717 109.943C817.626 112.243 816.932 114.303 814.97 115.729C801.534 125.527 791.772 138.656 783.182 152.504C774.651 166.255 767.305 180.75 759.469 194.933C758.859 196.047 758.416 197.245 757.471 199.353C759.086 198.347 759.84 197.867 760.606 197.412C768.645 192.693 776.589 187.781 784.761 183.313C789.798 180.558 795.911 183.517 797.275 189.291C798.053 192.621 798.101 196.19 798.029 199.64C797.778 213.344 797.347 227.036 797.012 240.74C796.976 241.997 797.179 243.267 797.347 245.435C799.13 243.159 800.326 241.542 801.618 240.021C807.217 233.468 814.049 233.828 818.834 240.979C821.55 245.052 824.003 249.292 826.766 253.329C836.529 267.56 849.713 277.263 866.164 282.378C874.359 284.929 882.674 287.109 890.929 289.433C891.826 289.685 892.759 289.769 894.554 290.092C886.55 276.197 882.925 261.81 882.937 246.142C881.669 246.394 880.784 246.609 879.874 246.753C876.668 247.28 873.462 248.154 870.243 248.25C857.669 248.634 849.282 242.213 846.387 229.983C843.767 218.95 844.09 207.714 844.676 196.514C845.107 188.26 846.064 180.043 846.758 171.802C846.926 169.849 847.045 167.896 847.069 165.932C847.153 157.846 846.016 156.66 837.929 157.858C833.669 158.493 829.434 159.703 825.355 161.116C819.504 163.129 813.809 165.597 808.019 167.813C806.607 168.352 805.04 169.226 803.676 169.022C801.582 168.711 798.83 168.172 797.778 166.699C796.725 165.237 797.179 162.482 797.455 160.35C797.586 159.332 798.651 158.254 799.56 157.547C810.794 148.826 822.459 140.872 837.031 138.896C839.915 138.501 842.906 138.465 845.801 138.752C857.693 139.914 865.47 146.934 866.654 158.817C867.408 166.435 866.582 174.209 866.379 181.924C866.056 193.998 865.589 206.061 865.326 218.136C865.266 220.615 865.829 223.107 866.104 225.586C866.439 228.473 868.174 229.983 870.949 229.707C874.921 229.312 878.893 228.689 882.793 227.814C883.667 227.623 884.492 226.042 884.851 224.939C886.55 219.789 887.962 214.542 889.733 209.415C890.355 207.618 891.515 205.905 892.783 204.456C894.961 201.976 897.892 201.162 901.098 202.012C904.341 202.863 906.41 205.115 906.889 208.385C907.272 210.936 907.164 213.584 907.14 216.183C907.056 227.707 906.458 239.242 906.985 250.73C907.26 256.707 909.138 262.697 910.885 268.494C915.91 285.169 921.772 301.52 930.398 316.769C931.535 318.781 932.109 321.285 932.324 323.609C932.887 329.718 927.981 334.198 922.191 332.293C918.566 331.096 914.737 328.784 912.38 325.849C908.767 321.333 906.123 315.966 903.515 310.744C902.331 308.372 901.314 307.545 898.502 307.533C868.975 307.533 842.176 299.891 820.653 278.449C816.908 274.735 813.738 270.435 809.921 265.955Z" fill="black"/>
<path d="M147.872 56.1464C148.063 55.9308 148.267 55.7871 148.338 55.6074C150.947 49.4742 155.696 46.8868 160.805 48.8513C165.973 50.8278 168.713 57.3802 166.775 63.0821C165.531 66.7357 162.946 69.1314 159.441 70.4611C146.005 75.5401 128.55 71.084 127.641 49.9055C126.743 29.0144 150.253 9.98014 172.075 19.4075C186.767 25.7562 201.458 45.629 194.316 67.3226C192.162 73.8511 188.98 80.2118 185.259 86.0096C177.937 97.4253 166.296 101.654 153.435 103.391C137.463 105.547 124.746 100.097 114.624 87.6506C108.57 80.2118 103.916 72.1022 100.734 63.0821C99.6451 60.0156 98.2932 57.0448 96.9293 54.0861C95.7329 51.4627 93.5315 50.4804 91.043 51.9299C85.0611 55.4157 79.0552 58.9015 73.4321 62.9144C69.8429 65.4779 66.9117 68.9757 63.6815 72.0423C62.5808 73.0964 61.528 74.2104 60.3435 75.1568C53.8232 80.4035 45.8193 77.4926 44.8622 69.1674C44.3597 64.8191 44.6229 60.1593 45.6398 55.9188C50.8681 34.2971 62.9277 17.4789 81.9744 5.8235C95.5654 -2.48978 110.688 -6.4907 126.085 -9.54529C146.556 -13.5941 167.074 -17.3794 187.556 -21.3444C201.482 -24.0396 212.908 -30.7837 221.127 -42.5588C222.06 -43.8885 222.97 -45.2541 223.747 -46.6796C229.059 -56.3704 224.345 -66.8878 213.386 -68.7086C201.363 -70.697 190.021 -67.9419 179.708 -61.5213C175.808 -59.0896 173.403 -55.3522 172.577 -50.6565C171.931 -47.015 169.969 -46.2723 166.751 -48.1889C161.858 -51.1237 159.764 -57.2928 161.69 -63.39C163.437 -68.9002 166.954 -73.2126 171.692 -76.3151C185.439 -85.3112 200.453 -88.6772 216.497 -84.6044C237.709 -79.214 246.874 -56.6699 235.58 -37.959C225.53 -21.3085 211.018 -10.0245 192.234 -5.06523C170.699 0.612714 148.961 5.536 127.294 10.6989C114.014 13.8613 101.093 17.8861 89.3202 25.0255C81.4958 29.7691 75.1788 35.9981 70.5368 44.0598C71.5298 43.4968 72.5228 42.9458 73.5039 42.3708C78.8996 39.2563 84.427 36.4653 90.7559 35.8783C97.8505 35.2195 103.773 37.6751 107.553 43.7124C110.126 47.8092 112.112 52.3731 113.739 56.949C116.73 65.3701 121.252 72.7011 126.708 79.7686C139.868 96.8024 168.246 88.0938 174.228 73.3C179.457 60.3749 178.5 49.8815 169.359 42.0234C165.447 38.6574 160.996 36.8126 155.816 38.7412C150.396 40.7536 147.094 44.7186 145.993 50.3966C145.599 52.5887 145.527 54.7928 147.872 56.1464Z" fill="black"/>
<path d="M916.735 -103.543C919.284 -105.843 921.832 -108.179 924.416 -110.455C925.469 -111.377 926.534 -112.395 927.766 -113.006C930.231 -114.204 932.719 -114.072 934.574 -111.832C936.392 -109.64 935.997 -107.268 934.155 -105.328C929.596 -100.548 924.919 -95.8884 920.277 -91.1927C919.056 -89.9589 917.752 -88.797 916.568 -87.5392C914.618 -85.4549 912.464 -83.7419 909.449 -84.6403C905.968 -85.6705 902.713 -87.0481 901.421 -91.037C900.524 -93.7921 899.376 -96.4874 898.059 -99.0628C894.722 -105.603 893.358 -112.611 892.999 -119.834C892.353 -133.142 894.446 -145.876 901.433 -157.471C904.688 -162.874 908.791 -167.45 914.486 -170.373C919.319 -172.852 924.38 -173.643 929.632 -171.906C934.406 -170.337 936.667 -167.126 936.978 -162.263C937.062 -160.849 937.648 -159.304 938.462 -158.142C960.129 -127.5 981.855 -96.9186 1003.55 -66.3008C1004.86 -64.4441 1006.45 -62.5754 1007.05 -60.4551C1007.61 -58.4786 1007.25 -56.1308 1006.87 -54.0225C1006.6 -52.4773 1005.63 -51.0638 1004.96 -49.5904C1002.84 -44.9306 998.449 -43.613 994.369 -46.428C993.472 -47.0389 992.551 -47.6259 991.677 -48.2727C986.844 -51.9023 981.891 -52.4773 975.634 -51.7945C947.985 -48.7639 925.529 -34.7966 903.659 -19.308C897.713 -15.1034 891.982 -10.5874 886.012 -6.41881C877.063 -0.165877 868.856 6.88964 861.294 14.7717C846.555 30.1525 829.674 43.1135 812.122 54.9605C793.375 67.6221 772.271 74.2464 749.372 73.8152C723.374 73.324 705.918 60.0276 695.426 36.8965C691.669 28.5952 690.305 19.6111 689.851 10.5312C689.779 9.02185 689.875 7.47658 690.078 5.97923C690.521 2.81683 692.052 0.409102 695.33 -0.35754C698.644 -1.12418 701.528 0.00182785 703.262 2.82882C704.722 5.20062 705.787 7.88387 706.612 10.5551C708.263 15.8498 709.364 21.3121 711.159 26.5588C716.59 42.4786 731.354 58.3026 756.43 55.4397C774.041 53.4392 790.097 47.3061 804.142 36.7528C820.82 24.223 837.618 11.753 851.663 -3.90327C853.398 -5.84384 855.288 -7.68857 857.334 -9.29373C878.798 -26.1359 899.926 -43.4453 924.201 -56.2865C936.883 -63.0066 950.031 -68.3252 964.4 -69.9543C971.853 -70.8048 979.367 -71.3559 986.677 -67.7023C986.138 -68.5528 985.636 -69.4273 985.073 -70.2658C966.661 -97.3379 948.236 -124.386 929.812 -151.458C927.754 -154.489 925.577 -154.788 923.004 -152.117C921.88 -150.955 920.851 -149.625 920.121 -148.188C913.349 -134.76 911.22 -120.78 915.371 -106.106C915.551 -105.483 915.778 -104.873 916.029 -104.274C916.101 -104.118 916.305 -103.998 916.735 -103.543Z" fill="black"/>
<path d="M275.611 89.5671C295.16 79.469 314.709 69.3709 334.617 59.0931C334.306 58.5061 333.696 57.5358 333.277 56.4817C331.614 52.2532 329.58 48.0965 328.492 43.7243C327.08 38.0942 329.437 33.686 333.804 32.1647C338.338 30.5955 343.159 32.6798 345.349 38.0823C347.538 43.4967 349.058 49.1986 350.493 54.8765C351.857 60.243 352.695 65.7413 353.843 71.1677C354.142 72.6171 354.705 74.0067 355.219 75.6358C368.99 68.0412 382.437 60.6263 396.052 53.1156C394.7 47.7491 389.101 43.1133 383.227 43.0535C379.566 43.0175 376.659 40.9212 375.881 37.7469C375.067 34.4647 376.443 31.2064 379.733 29.5654C382.246 28.3196 385.081 27.7206 387.594 26.4748C395.478 22.5577 403.314 18.5448 411.091 14.4241C419.43 10.004 425.627 11.669 429.288 20.4255C432.123 27.2175 434.133 34.3808 436.072 41.4962C438.644 50.9355 440.797 60.4946 443.106 70.0057C443.441 71.3713 443.776 72.7609 443.908 74.1624C444.207 77.3368 443.262 80.032 440.355 81.6372C437.328 83.3022 434.145 82.8949 431.92 80.5112C429.443 77.8519 426.955 74.8212 425.711 71.4911C422.445 62.7466 419.729 53.7984 417.061 44.8503C415.577 39.891 414.596 34.7761 413.268 29.2419C409.009 31.3861 405.097 33.3626 401.352 35.2433C404.056 40.4181 406.808 45.2096 409.117 50.2048C412.538 57.6197 410.947 62.3274 403.422 65.4658C390.513 70.8323 378.31 77.3967 366.956 85.5662C365.209 86.824 363.223 87.8182 361.249 88.7047C352.635 92.5618 345.349 89.9265 341.173 81.4096C340.037 79.0977 339.211 76.63 338.135 73.9588C336.986 74.5577 335.933 75.0608 334.94 75.6358C319.997 84.3204 305.102 93.0889 290.087 101.654C286.235 103.846 282.179 105.87 277.98 107.212C268.815 110.123 260.106 105.691 257.318 96.4669C256.026 92.1905 255.559 87.4469 255.811 82.9668C256.481 70.7005 257.761 58.4582 258.742 46.2159C259.364 38.5135 259.902 30.8111 260.429 23.1088C261.266 10.8065 266.028 4.02656 277.992 0.995922C290.937 -2.27429 304.133 -4.51433 317.269 -6.96999C332.751 -9.86886 348.364 -12.1448 363.761 -15.451C371.658 -17.152 379.183 -20.5539 386.912 -23.0815C389.149 -23.8122 391.518 -24.6147 393.815 -24.6147C397.751 -24.6147 400.443 -20.8055 399.246 -17.104C398.588 -15.0796 397.416 -13.163 396.172 -11.4141C395.645 -10.6834 394.377 -10.336 393.384 -10.1084C391.374 -9.65323 389.137 -9.79697 387.318 -8.98242C373.129 -2.58574 357.815 -0.082173 343.028 4.23019C322.904 10.1118 302.961 16.5923 283.005 22.989C281.94 23.3364 280.863 25.3009 280.732 26.6185C279.32 40.0348 278.087 53.475 276.819 66.9032C276.125 74.2462 275.42 81.5893 274.714 88.9323C275.013 89.1599 275.312 89.3635 275.611 89.5671Z" fill="black"/>
<path d="M565.019 174.772C565.019 170.496 565.198 164.506 564.983 158.529C564.6 148.167 569.254 141.016 578.79 137.554C592.369 132.619 606.055 127.959 619.862 123.695C641.768 116.939 663.961 111.105 685.723 103.918C698.262 99.773 710.19 93.7597 722.369 88.5489C725.384 87.2552 728.303 87.0516 730.947 89.2677C733.543 91.4358 733.711 94.2508 732.837 97.3054C727.98 114.471 723.206 131.661 718.265 148.802C716.602 154.552 714.903 160.338 712.546 165.812C709.651 172.52 704.782 177.408 697.807 180.39C683.019 186.715 668.124 192.884 653.803 200.155C634.422 209.99 615.543 220.795 596.436 231.156C594.056 232.45 591.687 233.864 589.162 234.81C580.943 237.9 573.681 234.942 571.228 226.557C569.087 219.202 567.986 211.475 567.113 203.833C566.072 194.765 565.761 185.613 565.019 174.772ZM586.099 215.704C600.301 207.51 613.413 199.952 627.375 191.902C623.738 188.236 620.484 184.822 617.086 181.564C615.052 179.624 612.624 178.078 610.65 176.066C607.946 173.311 607.431 169.717 608.915 166.758C610.458 163.692 613.916 161.62 617.601 162.254C619.981 162.662 622.697 163.452 624.408 165.01C629.588 169.741 634.697 174.64 639.16 180.043C642.916 184.607 642.498 184.954 647.786 182.055C648.061 181.9 648.276 181.648 648.91 181.109C646.35 178.03 643.802 174.976 641.265 171.897C639.267 169.466 636.958 167.214 635.391 164.53C631.957 158.685 635.14 152.096 641.792 150.779C645.835 149.976 649.592 151.054 652.212 154.049C654.665 156.852 656.723 160.158 658.29 163.56C659.989 167.274 660.922 171.346 662.31 175.671C664.727 174.724 667.107 173.754 669.512 172.844C675.937 170.412 682.385 168.136 689.408 168.423C694.05 168.615 696 166.878 696.742 162.302C697.257 159.092 697.903 155.882 698.788 152.755C703.274 136.847 707.857 120.975 712.391 105.08C712.463 104.816 712.295 104.493 712.164 103.798C709.555 104.936 707.103 106.038 704.638 107.068C681.703 116.675 658.9 126.641 635.762 135.733C620.46 141.747 605.469 148.275 590.909 155.918C588.277 157.295 587.081 158.972 587.021 161.955C586.877 168.807 586.255 175.647 586.159 182.487C585.98 193.339 586.099 204.192 586.099 215.704Z" fill="black"/>
<path d="M1427.2 -29.8852C1412.03 -21.0449 1397.34 -12.468 1381.89 -3.45999C1383.71 -2.20222 1384.62 -1.55536 1385.57 -0.932466C1399.15 8.06361 1410.64 19.1799 1419.76 32.704C1426.26 42.3469 1427.56 52.7445 1424.14 63.8728C1420.12 76.9417 1410.14 82.404 1397.08 78.439C1395.84 78.0677 1394.64 77.6244 1393.06 77.0854C1392.35 80.8587 1391.99 84.4284 1391 87.8184C1389.17 94.0474 1387.72 100.564 1384.77 106.266C1377.25 120.724 1365.8 123.407 1352.06 114.711C1346.31 111.081 1341.83 112.219 1338.66 118.209C1339.33 118.724 1340.04 119.203 1340.68 119.79C1342.63 121.599 1342.58 123.611 1340.62 125.396C1334.83 130.631 1325.9 127.959 1324.12 120.389C1322.97 115.513 1324.35 111.105 1327.13 107.116C1335.15 95.6406 1348.69 93.113 1360.29 100.887C1366.6 105.128 1368 105.092 1371.99 98.4316C1374.4 94.4067 1376.23 89.8428 1377.37 85.2789C1378.94 78.9661 1379.61 72.4257 1380.66 65.9811C1381.27 62.2557 1382.47 58.8896 1386.58 57.8235C1390.57 56.7933 1393.53 58.6021 1395.93 61.6687C1396.47 62.3515 1397.06 62.9864 1397.71 63.5733C1403.62 69.0357 1409.16 67.4784 1411.31 59.8359C1413.28 52.8763 1412.31 46.4916 1407.9 40.6819C1399.58 29.7093 1388.8 21.7793 1376.74 15.4306C1373.57 13.7655 1370.25 12.3041 1367.26 10.3635C1357.8 4.20643 1357.57 -5.8318 1367.15 -11.7254C1376.68 -17.583 1386.82 -22.4344 1396.47 -28.1004C1405.92 -33.6466 1415.12 -39.624 1424.34 -45.5655C1425.71 -46.4399 1426.83 -47.9732 1427.6 -49.4466C1429.49 -53.0881 1432.32 -55.1605 1436.39 -55.1245C1440.58 -55.0886 1443.93 -53.0522 1445.3 -49.1471C1446.58 -45.5056 1447.41 -41.5765 1447.66 -37.7194C1448.68 -21.7636 1449.45 -5.78388 1450.23 10.1839C1451.95 45.5093 1453.65 80.8228 1455.32 116.148C1455.64 123 1456.09 129.864 1455.84 136.692C1455.7 140.477 1454.6 144.37 1453.19 147.916C1452.6 149.389 1450 150.947 1448.41 150.863C1446.85 150.779 1444.63 148.934 1444.05 147.365C1442.65 143.652 1441.51 139.675 1441.22 135.722C1440.12 120.856 1439.66 105.954 1438.5 91.1006C1436.7 68.2211 1434.59 45.3656 1432.5 22.51C1431.02 6.2548 1429.33 -9.97646 1427.73 -26.2197C1427.57 -27.3577 1427.38 -28.4957 1427.2 -29.8852Z" fill="black"/>
<path d="M1336.57 33.9497C1335.96 54.1938 1333.75 71.8027 1325.85 88.2616C1321.87 96.5629 1316.94 104.265 1310.56 110.889C1297.91 124.054 1297.02 139.507 1301.77 155.894C1303.88 163.141 1308.55 168.723 1315.7 171.897C1318.77 173.263 1321.85 174.653 1324.89 176.126C1328.22 177.743 1328.7 180.558 1325.6 182.559C1323.44 183.96 1320.63 184.918 1318.05 185.062C1302.82 185.901 1289.35 176.677 1284.83 161.392C1278.91 141.328 1281.91 122.185 1296.27 106.769C1318.15 83.2784 1323.46 55.3438 1321.28 24.8578C1320.9 19.4433 1320.15 14.017 1319.06 8.69837C1314.58 -13.127 1299.99 -26.0042 1280.1 -33.1915C1268.3 -37.4559 1258.29 -32.3769 1251 -20.0867C1249.93 -18.2779 1249.69 -15.6425 1249.9 -13.4624C1251.38 2.42148 1259.79 14.0768 1272.65 22.8333C1275.92 25.0614 1279.76 25.2291 1283.33 23.9713C1287.5 22.5099 1291.53 20.5574 1295.47 18.533C1298.92 16.7481 1300.16 17.2632 1300.43 21.2042C1300.97 29.0264 1298.1 35.1835 1291.6 39.6636C1280.63 47.2461 1267.94 47.3659 1257.23 39.424C1239.16 26.0317 1229.83 8.07547 1229.93 -14.5884C1229.95 -21.1288 1232.03 -26.9386 1236.03 -32.1254C1250.95 -51.519 1273.33 -56.5741 1294.66 -44.6312C1318.21 -31.4426 1332.28 -11.5698 1334.96 15.7299C1335.61 22.5459 1336.17 29.3738 1336.57 33.9497Z" fill="black"/>
<path d="M1183.02 202.815C1179.02 199.233 1175.08 195.58 1171 192.106C1166.06 187.889 1160.92 183.912 1156 179.66C1154.73 178.57 1153.76 176.953 1153.09 175.383C1151.36 171.358 1153.35 166.735 1157.53 166.184C1175.85 163.764 1192.36 155.403 1209.92 150.587C1221.55 147.401 1233.25 144.49 1244.93 141.447C1245.15 141.387 1245.36 141.364 1245.58 141.34C1251.15 140.489 1255.61 142.621 1256.89 146.73C1258.16 150.803 1255.76 155.51 1250.4 157.331C1243.73 159.595 1236.83 161.188 1229.96 162.758C1210.37 167.226 1190.73 171.526 1171.12 175.886C1170.83 175.958 1170.55 176.114 1169.47 176.545C1172.19 178.474 1174.39 180.307 1176.84 181.72C1184.09 185.889 1190.49 191.016 1195.57 197.7C1196.55 198.994 1197.58 200.287 1198.33 201.725C1201.42 207.582 1199.32 213.703 1193.04 215.752C1186.65 217.836 1180.11 219.561 1173.52 220.819C1160.3 223.346 1146.99 225.455 1133.71 227.731C1126.2 229.012 1122.44 225.562 1123.35 217.908C1124.15 211.14 1125.29 204.408 1126.33 197.293C1124.56 197.448 1122.75 197.544 1120.96 197.784C1105.71 199.832 1090.43 200.551 1075.15 198.167C1068.71 197.161 1062.77 194.885 1057.57 190.836C1050.9 185.637 1048.04 178.809 1049.36 170.436C1050.98 160.05 1055.37 150.959 1064.08 144.801C1078.94 134.296 1095.4 128.127 1113.85 129.588C1119.79 130.056 1125.78 132.008 1131.31 134.332C1134.59 135.71 1137.51 138.752 1139.68 141.723C1142.78 145.927 1141.71 152.42 1138.13 156.217C1136.3 158.158 1133.69 158.385 1132.25 156.061C1125.76 145.58 1115.38 145.915 1105.33 146.766C1095.84 147.569 1087.01 151.27 1078.97 156.529C1073.56 160.062 1069.93 164.926 1068.49 171.311C1067.53 175.551 1068.14 177.935 1072.06 179.684C1076.08 181.469 1080.43 182.726 1084.76 183.553C1100.01 186.476 1115.29 185.098 1130.54 183.241C1131.72 183.098 1132.85 182.642 1134 182.343C1140.54 180.666 1145.32 185.23 1143.87 191.818C1142.54 197.867 1141.14 203.917 1139.79 209.966C1139.54 211.092 1139.41 212.242 1139.29 212.973C1153.74 209.87 1167.99 206.804 1182.24 203.749C1182.5 203.45 1182.77 203.138 1183.02 202.815Z" fill="black"/>
<path d="M969.006 136.488C976.746 132.571 984.523 128.75 992.168 124.641C993.209 124.078 993.747 122.209 994.118 120.844C995.626 115.178 996.81 109.428 998.473 103.81C999.131 101.582 1000.46 99.4257 1001.93 97.5929C1005.17 93.5321 1010.47 92.0947 1015.16 93.8196C1020.08 95.6284 1022.86 99.4017 1022.78 104.505C1022.74 108.098 1022.29 112.207 1020.52 115.178C1013.74 126.546 1012.95 139.303 1010.95 151.809C1009.01 163.943 1007.25 176.102 1005.35 188.236C1005.22 189.111 1004.65 190.56 1004.19 190.596C1003.27 190.668 1001.91 190.225 1001.4 189.506C999.55 186.871 997.181 184.224 996.451 181.229C994.896 174.832 993.855 168.244 993.329 161.679C992.814 155.319 993.221 148.886 993.221 141.711C991.414 142.501 990.385 142.909 989.38 143.4C983.422 146.299 977.632 149.677 971.447 151.941C967.415 153.414 962.725 154.073 958.454 153.678C951.814 153.079 948.153 147.341 949.325 140.705C949.684 138.692 950.294 136.656 951.192 134.823C954.972 127.109 958.836 119.442 962.797 111.812C972.224 93.6279 978.912 74.4739 982.98 54.4333C983.937 49.7017 984.248 44.6586 983.769 39.8671C982.8 30.1523 976.435 24.5822 966.685 24.5702C954.984 24.5582 944.312 28.5472 934.095 33.9017C927.479 37.3755 921.641 41.8196 917.226 47.9887C911.758 55.6552 912.5 60.0514 920.313 65.382C921.832 66.4241 923.423 67.4064 924.799 68.6282C927.12 70.7005 926.797 72.8567 923.854 73.7431C909.042 78.2352 896.576 70.1256 895.224 56.3499C894.746 51.5345 895.81 46.9346 898.347 42.8977C900.991 38.6812 903.611 34.2131 907.176 30.8591C924.56 14.4721 945.365 6.91346 969.173 9.38109C986.844 11.2019 998.114 24.2827 998.509 42.0712C998.76 53.4391 995.53 64.22 992.563 75.0249C987.275 94.3107 979.546 112.626 970.549 130.427C969.688 132.128 968.982 133.901 968.204 135.65C968.444 135.925 968.719 136.201 969.006 136.488Z" fill="black"/>
<path d="M505.247 7.69227C511.66 6.75793 518.072 5.82358 524.7 4.86528C524.7 3.15231 524.689 1.43933 524.7 -0.273636C524.736 -4.01102 526.543 -6.51458 529.558 -7.04165C532.8 -7.61663 535.839 -5.97554 536.796 -2.40586C537.717 1.03205 538.196 4.63768 538.411 8.19538C538.674 12.6156 538.471 17.0717 538.471 22.3424C542.276 20.845 545.279 19.9346 548.018 18.5331C553.139 15.9097 558.08 12.939 563.153 10.2198C565.151 9.15369 567.232 8.07558 569.398 7.51258C572.197 6.79385 574.65 7.82405 575.882 10.5792C577.031 13.1666 576.289 15.4905 574.183 17.3352C573.454 17.9701 572.628 18.5451 571.755 18.9643C562.662 23.3845 553.57 27.7807 544.453 32.129C543.089 32.7759 541.606 33.2191 540.146 33.6264C531.245 36.1179 525.394 31.9374 524.772 22.6778C524.724 21.9351 524.677 21.1804 524.617 20.0664C520.465 21.2283 516.601 22.6179 512.605 23.3486C506.767 24.4147 500.808 25.7922 494.946 25.6365C483.413 25.3251 478.089 16.7482 482.934 6.26679C485.255 1.24768 489.144 -3.07666 492.529 -7.55673C493.606 -8.9822 495.353 -9.88062 496.789 -11.0306C496.585 -11.378 496.382 -11.7373 496.178 -12.0847C495.173 -12.1446 494.18 -12.2165 493.175 -12.2764C487.11 -12.6477 481.02 -12.8633 474.978 -13.4623C472.777 -13.6779 470.504 -14.5404 468.53 -15.6065C461.495 -19.4277 460.215 -28.0525 466.221 -33.3471C469.415 -36.1621 473.267 -38.6657 477.263 -40.0792C491.189 -45.0025 505.259 -49.5185 519.353 -53.9147C528.888 -56.8974 538.543 -59.5207 548.21 -62.0602C550.818 -62.743 551.249 -63.893 550.567 -66.169C549.849 -68.5647 549.251 -70.9964 548.652 -73.4281C547.791 -76.9739 549.047 -79.9446 551.835 -81.1185C554.766 -82.3523 558.415 -81.3461 559.803 -77.9681C561.968 -72.6855 564.241 -67.1992 564.959 -61.6051C566.299 -51.1596 566.646 -40.5823 567.185 -30.0529C567.316 -27.5973 566.79 -25.0697 566.227 -22.65C565.677 -20.2662 564.134 -18.4934 561.538 -18.2897C558.953 -18.0861 557.051 -19.5595 556.249 -21.8714C555.233 -24.8302 554.323 -27.9087 553.988 -30.9992C553.258 -37.899 552.912 -44.8347 552.385 -52.034C535.229 -45.3139 518.312 -38.6896 500.545 -31.7419C502.029 -31.3586 502.651 -31.1789 503.273 -31.0352C505.809 -30.4243 508.43 -30.0649 510.858 -29.1665C519.592 -25.9442 522.846 -17.7746 518.312 -9.65302C516.218 -5.90365 513.203 -2.65741 510.463 0.708634C508.705 2.8768 506.695 4.82934 504.804 6.8897C504.96 7.15323 505.104 7.42874 505.247 7.69227Z" fill="black"/>
<path d="M1173.35 91.1364C1173.15 92.9332 1173.04 94.2149 1172.85 95.4966C1171.56 104.397 1165.23 110.698 1156.31 111.884C1150.87 112.614 1146.37 110.65 1143.14 106.361C1140.27 102.552 1137.97 98.3117 1135.2 94.4305C1133 91.352 1130.54 88.4292 1127.98 85.6381C1126.65 84.1887 1124.99 83.4819 1122.71 84.2965C1119.87 85.3147 1116.78 83.5897 1116.05 81.1461C1115.32 78.6904 1116.75 76.4743 1119.93 75.2764C1124.87 73.4197 1129.8 73.7791 1133.81 77.1332C1137.77 80.4513 1141.23 84.3923 1144.7 88.2615C1146.86 90.6812 1148.52 93.5561 1150.63 96.0357C1151.52 97.0659 1153.39 98.5033 1154.1 98.1799C1155.68 97.4612 1157.71 95.8919 1157.96 94.4066C1158.61 90.5973 1158.45 86.6443 1158.49 82.7512C1158.5 81.2419 1158.17 79.7206 1158.07 78.2112C1157.86 74.5577 1158.9 71.4432 1162.49 69.886C1165.97 68.3647 1169.01 69.4188 1171.76 71.8984C1174.83 74.6536 1177.88 77.4686 1181.21 79.9003C1191.99 87.8302 1207.02 87.6146 1217.71 79.5649C1222.58 75.8993 1223.61 72.9286 1221.86 67.0949C1219.6 59.5243 1215.27 53.4032 1208.7 48.983C1182.22 31.1825 1153.59 28.0561 1123.29 36.6808C1122.58 36.8844 1121.56 37.0641 1121.26 37.5792C1120.04 39.7114 1118.38 40.0109 1116.32 39.1244C1113.89 38.0823 1112.17 36.0818 1112.56 33.5783C1112.97 30.919 1113.83 27.8524 1115.59 26.0077C1118.05 23.4203 1121.33 21.3479 1124.62 19.8266C1139.2 13.0586 1154.55 12.3279 1170.26 14.4721C1187.05 16.772 1202.45 22.438 1216.29 32.3205C1228.41 40.9812 1234.95 53.0079 1237.68 67.2986C1239.4 76.2947 1236.04 83.4819 1228.99 89.1239C1216.35 99.234 1192.53 103.63 1175.69 92.3702C1175.11 91.9869 1174.43 91.6994 1173.35 91.1364Z" fill="black"/>
<path d="M1489.52 170.807C1489.52 177.18 1489.59 183.145 1489.44 189.111C1489.41 189.901 1488.47 191.003 1487.68 191.399C1470.81 199.964 1458.3 213.14 1447.98 228.701C1444.21 234.391 1440.23 239.949 1436.37 245.579C1435.88 246.298 1435.42 247.064 1435.12 247.867C1434.01 250.897 1432.27 253.066 1428.67 252.562C1425.55 252.131 1422.57 249.065 1422.21 245.639C1421.84 242.081 1421.72 238.475 1421.66 234.894C1421.42 221.957 1421.24 209.02 1421.03 196.082C1421.02 195.555 1420.94 195.028 1420.86 194.082C1419.92 194.585 1419.19 194.909 1418.53 195.352C1417.35 196.13 1416.24 197.017 1415.06 197.783C1411.35 200.179 1407.45 201.928 1403.2 199.305C1398.99 196.693 1398.67 192.417 1399.15 188.033C1399.72 182.738 1400.5 177.467 1401.07 172.173C1401.25 170.568 1401.08 168.926 1401.07 167.297C1401.05 164.135 1399.24 162.877 1396.3 162.793C1393.69 162.71 1391.07 162.745 1388.5 162.422C1384.01 161.871 1380.36 159.847 1378.74 155.366C1377.14 150.982 1378.81 147.221 1381.69 143.975C1383.13 142.358 1384.9 141.052 1386.48 139.554C1389.87 136.356 1393.41 133.29 1396.6 129.888C1401.1 125.072 1402.78 119.334 1401.55 112.71C1400.63 107.787 1402.17 104.924 1405.68 104.121C1409.37 103.271 1412.72 105.499 1414.12 110.027C1417 119.274 1415.02 127.779 1409.26 135.254C1405.49 140.141 1401 144.478 1396.84 149.054C1395.99 149.988 1395.1 150.91 1393.91 152.192C1396.71 152.923 1398.98 153.534 1401.26 154.109C1407.38 155.666 1411.23 159.559 1412.03 165.788C1412.65 170.604 1412.51 175.527 1412.67 180.414C1412.72 182.139 1412.68 183.864 1412.68 186.176C1413.93 185.397 1414.87 184.798 1415.82 184.211C1417.67 183.073 1419.41 181.708 1421.39 180.857C1426.45 178.677 1431.2 180.654 1432.24 186.044C1433.34 191.758 1433.25 197.688 1433.83 203.521C1433.97 204.971 1434.32 207.331 1435.15 207.618C1437.32 208.373 1439.63 208.397 1441.38 205.809C1447.43 196.849 1454.28 188.572 1463.31 182.367C1471.16 176.976 1479.62 172.927 1489.52 170.807Z" fill="black"/>
<path d="M196.864 202.251C185.415 201.545 174.504 199.065 163.868 195.507C136.159 186.236 112.686 170.819 95.3261 146.933C85.8507 133.901 79.773 119.514 79.9166 103.091C79.9524 99.3656 80.8617 95.5444 81.9624 91.9508C82.9075 88.8483 85.9464 87.4468 88.6502 88.0577C91.4139 88.6926 93.6033 91.1602 93.1846 94.3705C90.72 113.692 99.0469 129.229 110.796 143.196C128.466 164.207 150.372 178.977 177.411 185.23C187.449 187.554 197.654 187.649 207.847 185.888C208.912 185.709 210.001 185.565 211.077 185.541C215.181 185.433 218.196 187.53 218.926 190.955C219.668 194.393 217.909 198.083 214.032 199.101C208.445 200.574 202.607 201.245 196.864 202.251Z" fill="black"/>
<path d="M-27.1249 123.875C-32.6881 123.994 -38.371 121.263 -42.8336 116.268C-44.5683 114.327 -46.2553 111.692 -46.5663 109.2C-48.9113 90.0823 -39.6153 73.7193 -20.1619 68.4007C-13.8449 66.6758 -7.64758 67.694 -1.8331 70.7126C7.61842 75.6 11.0162 83.4341 9.56855 93.9635C7.24754 110.949 -8.98754 123.24 -27.1249 123.875Z" fill="black"/>
<path d="M727.142 -4.05921C728.04 -8.81478 728.913 -14.2532 730.145 -19.5957C730.995 -23.2852 734.62 -25.9804 738.759 -25.7887C741.619 -25.657 744.55 -24.8903 747.242 -23.8482C756.466 -20.2905 765.619 -16.5531 774.723 -12.7199C777.702 -11.4621 780.753 -10.0486 783.23 -8.04815C788.35 -3.90349 787.405 2.34943 781.626 5.51183C780.227 6.27848 779.054 7.46438 777.762 8.43466C771.624 13.0705 765.583 17.838 759.302 22.2582C757.328 23.6477 754.743 24.3305 752.339 24.9414C741.009 27.8523 731.773 22.366 729.176 10.9502C728.112 6.31442 727.86 1.49895 727.142 -4.05921ZM745.124 -3.37642C746.034 1.33124 746.644 5.3681 747.673 9.28516C747.888 10.1117 749.647 11.1658 750.604 11.07C756.885 10.507 762.209 7.54823 767.952 3.84678C760.151 1.37915 753.08 -0.848901 745.124 -3.37642Z" fill="black"/>
<path d="M855.444 49.3184C855.564 44.2873 856.748 38.4895 860.529 33.5063C862.969 30.284 866.008 27.9242 870.136 27.2893C876.261 26.355 880.568 31.0028 879.156 37.0161C879.013 37.651 878.809 38.2739 878.594 38.8848C873.928 52.1933 878.295 66.9511 889.469 75.6597C892.736 78.1992 896.265 79.7565 900.548 79.7445C904.879 79.7325 907.535 81.9007 907.978 85.1709C908.396 88.2974 906.207 91.1723 902.211 92.442C896.265 94.3347 890.355 93.616 884.6 91.6155C868.209 85.9375 855.432 67.7897 855.444 49.3184Z" fill="black"/>
<path d="M1041.76 35.6867C1049.15 34.8362 1055.94 34.1295 1062.7 33.255C1071.2 32.165 1079.7 30.8832 1088.2 29.8051C1090.45 29.5176 1092.78 29.3859 1095.01 29.6614C1096.21 29.8051 1098.07 30.8593 1098.2 31.7337C1098.38 32.9077 1097.51 34.6805 1096.53 35.4951C1095.07 36.6929 1093.19 37.6512 1091.34 38.0705C1072.91 42.2391 1054.48 46.3119 1036.02 50.2769C1034.19 50.6722 1032.08 50.4207 1030.24 49.9655C1025.25 48.7436 1022.64 44.3953 1024.16 39.496C1025.42 35.4591 1027.28 31.6259 1028.81 27.6729C1032.03 19.3596 1035.24 11.0463 1038.38 2.7091C1039.44 -0.0819612 1040.85 -2.41782 1044.02 -3.02874C1049.07 -3.99902 1052.97 0.169597 1051.56 5.7637C1049.71 13.0228 1047.19 20.1023 1044.89 27.2297C1044.02 29.889 1042.95 32.4764 1041.76 35.6867Z" fill="black"/>
<path d="M1056.83 114.28C1054.69 113.693 1051.28 113.225 1048.29 111.86C1039.26 107.751 1036.43 97.3775 1041.85 89.0523C1043.9 85.9018 1045.83 82.6316 1048.21 79.7328C1053.4 73.408 1060.39 71.5872 1068.16 72.9887C1080.92 75.2887 1087.32 88.3455 1081.45 100.109C1076.69 109.68 1068.2 113.345 1056.83 114.28ZM1062.49 91.4241C1059.61 91.6397 1057.2 91.4959 1054.97 92.059C1052.35 92.7298 1052.59 95.2693 1053.16 97.114C1053.39 97.8327 1055.67 98.5634 1056.7 98.252C1059.57 97.3416 1061.44 95.1615 1062.49 91.4241Z" fill="black"/>
<path d="M913.792 149.378C914.809 154.66 913.445 157.319 909.82 158.421C906.111 159.547 901.84 158.002 900.093 153.882C898.586 150.288 897.318 146.131 897.593 142.334C898.55 128.69 903.838 116.783 914.725 108.123C918.267 105.296 922.729 103.403 927.048 101.834C930.829 100.456 934.813 101.319 938.223 103.69C940.723 105.427 942.063 107.859 941.489 110.986C940.914 114.1 938.869 116.244 935.854 116.544C931.331 116.999 928.472 119.634 926.259 123.036C922.657 128.558 919.14 134.176 916.137 140.034C914.689 142.813 914.534 146.239 913.792 149.378Z" fill="black"/>
<path d="M1080.89 2.87674C1089.79 2.07416 1098.2 1.33147 1106.62 0.552851C1109.43 0.289317 1112.21 -0.201808 1115.03 -0.321596C1117.65 -0.429405 1121.31 -1.18407 1121.98 2.1101C1122.66 5.5001 1119 6.21883 1116.46 6.85371C1111.1 8.19533 1105.66 9.20154 1100.26 10.3994C1091.79 12.2801 1083.33 14.2087 1074.87 16.1373C1071.58 16.8799 1068.53 16.5565 1066.24 13.8733C1063.94 11.202 1064.45 8.18334 1065.76 5.28447C1071.02 -6.39485 1076.31 -18.0502 1081.66 -29.6936C1082.28 -31.0472 1083.17 -32.3888 1084.24 -33.395C1086.35 -35.3715 1088.91 -35.7668 1091.43 -34.2336C1093.87 -32.7602 1094.6 -30.3764 1093.78 -27.7291C1093.07 -25.4651 1092.06 -23.2849 1091.1 -21.1048C1088.13 -14.3488 1085.1 -7.6047 1082.14 -0.848666C1081.66 0.205468 1081.38 1.34345 1080.89 2.87674Z" fill="black"/>
<path d="M222.048 114.148C220.84 120.185 221.366 126.713 223.783 133.254C225.159 136.979 221.881 139.758 217.945 138.788C208.374 136.44 198.814 134.092 189.231 131.792C186.491 131.133 183.859 130.355 183.309 127.097C182.771 123.862 184.876 122.066 187.305 120.64C194.579 116.376 201.865 112.135 209.223 108.002C210.695 107.176 212.465 106.709 214.152 106.433C218.914 105.655 222.192 108.625 222.048 114.148Z" fill="black"/>
<path d="M1266.03 67.6578C1272.54 66.9271 1279.05 66.0886 1285.57 65.5256C1286.91 65.4058 1288.85 65.8969 1289.57 66.8313C1290.26 67.7297 1290.25 69.8619 1289.65 70.964C1285.52 78.5825 1283.95 86.9557 1282.23 95.2809C1281.65 98.1079 1280.31 100.144 1277.5 100.875C1274.42 101.678 1271.74 100.683 1270.15 98.0121C1268.5 95.233 1267.27 92.1904 1265.96 89.2077C1263.8 84.2365 1261.8 79.2054 1259.62 74.2462C1257.7 69.8619 1260.53 66.424 1265.93 66.7235C1265.96 67.0229 1266 67.3344 1266.03 67.6578Z" fill="black"/>
<path d="M236.836 47.5455C235.592 57.6915 234.383 67.8375 233.055 77.9716C232.828 79.6726 232.242 81.3616 231.596 82.9668C230.674 85.2307 229.035 86.8599 226.415 86.7161C223.604 86.5604 222.18 84.5839 221.63 82.0923C221.187 80.0918 220.888 77.9836 220.984 75.9472C221.474 65.6215 222.072 55.3077 222.73 44.994C222.838 43.4008 223.269 41.7477 223.903 40.2744C225.147 37.4114 227.432 35.8182 230.626 36.1776C233.821 36.537 235.711 38.6093 236.309 41.6519C236.68 43.5446 236.561 45.545 236.668 47.4976C236.728 47.5215 236.788 47.5335 236.836 47.5455Z" fill="black"/>
<path d="M860.098 112.47C860.086 116.184 858.531 117.729 854.798 117.969C849.833 118.292 844.868 118.663 839.903 119.119C837.02 119.382 834.316 119.143 832.88 116.28C831.361 113.261 832.88 110.853 835.022 108.745C839.484 104.325 843.923 99.8927 848.409 95.4845C850.611 93.3283 853.697 93.4361 854.918 96.1912C857.215 101.39 858.949 106.828 860.924 112.171C860.648 112.279 860.373 112.375 860.098 112.47Z" fill="black"/>
<path d="M747.816 133.96C743.246 133.889 740.769 131.062 741.631 127.707C743.15 121.814 744.837 115.944 746.895 110.23C748.307 106.289 752.147 104.768 755.629 106.11C758.847 107.356 760.438 110.997 758.895 114.866C756.813 120.113 754.516 125.3 751.872 130.283C750.927 132.068 748.725 133.17 747.816 133.96Z" fill="black"/>
<path d="M594.989 12.2798C589.258 12.2199 585.382 8.8539 585.358 3.90666C585.334 -1.61555 589.784 -6.34717 594.989 -6.34717C601.461 -6.34717 606.055 -2.56188 605.948 2.68482C605.84 8.18308 601.102 12.3397 594.989 12.2798Z" fill="black"/>
<path d="M928.987 80.5833C933.868 80.5474 938.007 83.3984 938.007 86.7884C937.995 90.4419 933.102 95.4131 929.537 95.3891C925.05 95.3652 921.377 91.9273 921.389 87.7467C921.389 83.5181 924.476 80.6193 928.987 80.5833Z" fill="black"/>
<path d="M1111.15 61.0935C1110.83 66.7954 1108.24 69.5385 1103.41 69.3349C1099.07 69.1432 1095.45 65.873 1095.57 62.2315C1095.7 58.1946 1100.99 53.9901 1105.56 54.2895C1109.39 54.5411 1111.39 56.9608 1111.15 61.0935Z" fill="black"/>
<path d="M608.316 30.8712C605.768 30.8233 603.722 28.6192 603.746 25.9599C603.758 23.2287 605.481 21.2043 607.658 21.348C610.207 21.5037 612.923 24.3307 612.815 26.6906C612.695 29.0504 610.685 30.9191 608.316 30.8712Z" fill="black"/>
</g>
</g>
<defs>
<clipPath id="clip0_264_1433">
<rect width="1440" height="129.274" fill="white"/>
</clipPath>
<clipPath id="clip1_264_1433">
<rect width="1540" height="1071" fill="white" transform="translate(-50 -295)"/>
</clipPath>
</defs>
</svg>
