<svg width="1440" height="130" viewBox="0 0 1440 130" fill="none" xmlns="http://www.w3.org/2000/svg">
<g clip-path="url(#clip0_264_1253)">
<path d="M0 129.437V0.162491H1440L0 129.437Z" fill="#24865D"/>
<g opacity="0.03" clip-path="url(#clip1_264_1253)">
<path d="M-50 135.726C-39.2085 134.887 -28.7161 132.695 -18.6066 128.778C19.9173 113.853 42.6967 85.7503 50.222 45.3338C53.0934 29.9291 53.2728 14.3806 49.1692 -0.964188C48.7265 -2.60528 48.1164 -4.19849 47.4225 -6.30676C45.6997 -4.33026 44.4315 -2.58135 42.8881 -1.1439C30.0269 10.8349 14.8805 18.5852 -2.16812 22.5382C-5.05143 23.209 -8.25777 23.0772 -11.2248 22.6819C-15.3763 22.1309 -18.5109 19.7352 -19.7432 15.5665C-20.9635 11.4219 -19.8987 7.48083 -16.5488 4.9533C-13.1391 2.37786 -9.26274 0.149818 -5.26678 -1.32357C1.24161 -3.71933 8.14481 -5.0849 14.6771 -7.44472C21.2932 -9.8285 27.6939 -12.8112 34.1066 -15.7221C36.2242 -16.6804 37.4086 -18.0699 36.5472 -21.1245C35.1833 -25.8921 40.5552 -29.9769 45.3647 -27.6769C48.4514 -26.1916 51.3466 -23.6401 53.4403 -20.8969C59.5539 -12.919 62.497 -3.49174 63.4422 6.34285C67.9167 53.0961 55.3546 94.1834 21.2334 127.305C1.43304 146.507 -22.3513 158.402 -50 161.84C-50 153.131 -50 144.422 -50 135.726Z" fill="black"/>
<path d="M413.878 76.1794C409.727 77.0179 406.162 77.8684 402.537 78.4314C386.78 80.899 371.789 78.2038 357.492 71.3759C341.473 63.7214 333.636 50.6645 333.002 33.1635C332.224 11.422 340.3 -7.07329 354.729 -22.8613C359.61 -28.2039 365.149 -33.1032 371.012 -37.3676C406.293 -63.0262 445.583 -78.5148 488.952 -83.7975C510.954 -86.4687 532.98 -89.164 554.79 -93.0451C579.938 -97.5132 603.196 -107.599 625.628 -119.674C635.08 -124.753 640.416 -132.395 641.074 -142.997C641.421 -148.495 640.99 -154.065 640.416 -159.563C640.189 -161.791 638.478 -163.828 637.736 -166.056C637.198 -167.685 636.444 -169.805 637.054 -171.111C637.676 -172.441 639.925 -173.902 641.337 -173.782C643.658 -173.602 646.194 -172.608 648.073 -171.207C651.794 -168.428 653.421 -164.151 654.545 -159.767C657.608 -147.788 656.794 -136.013 652.416 -124.501C648.755 -114.858 641.517 -108.414 632.879 -103.359C616.297 -93.644 598.853 -85.9536 580.405 -80.4434C557.685 -73.6394 534.367 -70.3093 510.87 -68.0094C486.057 -65.5897 461.399 -62.5111 437.806 -53.7307C416.439 -45.7887 396.602 -35.0557 378.561 -21.1843C362.732 -9.01383 352.599 6.75027 350.948 27.21C349.728 42.3992 354.788 51.0958 368.69 57.2409C377.652 61.1939 386.983 63.5058 396.89 62.6792C397.607 62.6193 398.313 62.4277 398.397 62.4157C396.602 56.2945 394.425 50.389 393.193 44.2918C390.549 31.1271 393.695 18.9207 401.017 7.91219C410.349 -6.13893 422.301 -17.2912 438.081 -23.9394C438.955 -24.3108 439.852 -25.7602 439.9 -26.7545C440.056 -30.0127 439.876 -33.2829 439.72 -36.5411C439.553 -40.2545 440.737 -43.2013 444.243 -44.8304C447.509 -46.3518 452.008 -45.609 454.293 -42.4466C456.267 -39.7035 458.001 -36.4213 458.636 -33.1391C460.562 -23.2207 462.033 -13.1944 463.421 -3.18015C464.869 7.27734 466.017 17.7707 467.321 28.2402C467.429 29.0787 467.501 30.061 467.967 30.7078C470.241 33.8822 470.037 38.4701 467.393 40.7221C464.606 43.0939 460.071 42.6986 457.619 39.1769C455.226 35.7389 453.001 31.9297 451.828 27.9527C448.586 17.0161 445.918 5.91175 443.035 -5.1327C442.735 -6.2587 442.52 -7.3967 442.197 -8.84613C441.407 -8.46281 440.857 -8.34301 440.522 -8.0076C433.128 -0.520855 425.28 6.59456 418.484 14.6084C408.71 26.12 408.315 39.5721 412.634 53.4675C413.053 54.7972 413.711 56.1029 414.5 57.2528C416.08 59.5288 418.927 59.3372 420.315 56.9774C420.375 56.8815 420.399 56.7737 420.447 56.6779C423.234 51.503 425.771 49.9099 429.707 50.8202C433.427 51.6947 436.036 55.3243 435.402 60.6309C434.492 68.1655 433.176 75.7122 431.334 83.0672C424.466 110.451 419.681 138.194 415.793 166.128C415.326 169.458 414.5 172.752 413.795 176.047C413.256 178.538 412.144 180.611 409.26 180.898C406.365 181.185 404.116 179.712 403.41 177.173C402.142 172.609 400.826 167.889 400.718 163.205C400.311 144.518 402.8 126.071 406.509 107.803C408.411 98.424 410.84 89.1524 413.029 79.8329C413.292 78.8027 413.519 77.7486 413.878 76.1794Z" fill="black"/>
<path d="M809.921 89.9549C808.737 92.9376 807.839 95.7406 806.535 98.3281C805.183 101.023 803.796 103.85 801.786 106.03C797.167 111.014 790.85 110.774 785.969 106.042C782.823 102.988 780.741 99.4301 779.664 95.2016C775.249 77.7605 773.682 60.0558 774.891 42.1116C775.154 38.1466 775.465 34.1816 775.788 29.7015C774.603 30.4322 773.85 30.7916 773.204 31.3067C766.013 37.1164 758.787 42.8782 751.692 48.7957C749.371 50.7363 747.326 53.0243 745.256 55.2523C741.451 59.3611 737.025 60.6548 732.694 58.81C728.482 57.0012 726.03 53.0842 726.867 47.526C727.777 41.4288 729.081 35.2956 731.079 29.4859C736.678 13.1948 746.153 -1.08394 755.198 -15.5783C763.752 -29.294 772.964 -42.5066 785.682 -52.7365C792.107 -57.8993 799.022 -62.4633 805.817 -67.135C807.373 -68.2011 809.347 -68.9318 811.213 -69.2073C813.654 -69.5787 815.759 -68.4766 816.717 -66.0569C817.626 -63.757 816.932 -61.6966 814.97 -60.2712C801.534 -50.4725 791.772 -37.3438 783.182 -23.4963C774.651 -9.74463 767.305 4.74973 759.469 18.9326C758.859 20.0466 758.416 21.2445 757.471 23.3528C759.086 22.3466 759.84 21.8674 760.606 21.4122C768.645 16.6926 776.589 11.7813 784.761 7.31318C789.798 4.55805 795.911 7.51684 797.275 13.2906C798.053 16.6207 798.101 20.1904 798.029 23.6403C797.778 37.344 797.347 51.0358 797.012 64.7395C796.976 65.9973 797.179 67.2671 797.347 69.4352C799.13 67.1592 800.326 65.5421 801.618 64.0208C807.217 57.4684 814.049 57.8278 818.834 64.9791C821.55 69.0519 824.003 73.2924 826.766 77.3292C836.529 91.56 849.713 101.263 866.164 106.378C874.359 108.929 882.674 111.109 890.929 113.433C891.826 113.685 892.759 113.769 894.554 114.092C886.55 100.197 882.925 85.8102 882.937 70.142C881.669 70.3935 880.784 70.6091 879.874 70.7529C876.668 71.28 873.462 72.1544 870.243 72.2502C857.669 72.6336 849.282 66.2129 846.387 53.9826C843.767 42.9501 844.09 31.714 844.676 20.5138C845.107 12.2604 846.064 4.04298 846.758 -4.19843C846.926 -6.15097 847.045 -8.10351 847.069 -10.068C847.153 -18.1537 846.016 -19.3396 837.929 -18.1418C833.669 -17.5069 829.434 -16.297 825.355 -14.8835C819.504 -12.8711 813.809 -10.4035 808.019 -8.18739C806.607 -7.64834 805.04 -6.77388 803.676 -6.97752C801.582 -7.28896 798.83 -7.82801 797.778 -9.3014C796.725 -10.7628 797.179 -13.5179 797.455 -15.6502C797.586 -16.6683 798.651 -17.7464 799.56 -18.4532C810.794 -27.1737 822.459 -35.1277 837.031 -37.1042C839.915 -37.4995 842.906 -37.5354 845.801 -37.2479C857.693 -36.086 865.47 -29.0664 866.654 -17.1834C867.408 -9.56492 866.582 -1.79067 866.379 5.92367C866.056 17.9983 865.589 30.0609 865.326 42.1355C865.266 44.6151 865.829 47.1067 866.104 49.5863C866.439 52.4732 868.174 53.9826 870.949 53.7071C874.921 53.3118 878.893 52.6889 882.793 51.8144C883.667 51.6228 884.492 50.0415 884.851 48.9395C886.55 43.7886 887.962 38.5419 889.733 33.415C890.355 31.6182 891.515 29.9052 892.783 28.4558C894.961 25.9762 897.892 25.1616 901.098 26.0121C904.341 26.8626 906.41 29.1146 906.889 32.3848C907.272 34.9363 907.164 37.5836 907.14 40.183C907.056 51.7066 906.458 63.2422 906.985 74.7298C907.26 80.7072 909.138 86.6967 910.885 92.4944C915.91 109.169 921.772 125.52 930.398 140.769C931.535 142.781 932.109 145.285 932.324 147.609C932.887 153.718 927.981 158.198 922.191 156.293C918.566 155.096 914.737 152.784 912.38 149.849C908.767 145.333 906.123 139.966 903.515 134.744C902.331 132.372 901.314 131.545 898.502 131.533C868.975 131.533 842.176 123.891 820.653 102.449C816.908 98.7354 813.738 94.435 809.921 89.9549Z" fill="black"/>
<path d="M312.352 95.3216C312.364 123.556 303.02 148.615 286.869 171.219C266.088 200.292 240.341 223.758 207.428 238.528C193.933 244.589 179.911 248.734 164.801 247.548C149.451 246.35 136.841 240.061 127.366 227.771C118.225 215.924 113.739 202.16 110.927 187.702C108.08 173.04 107.159 158.366 110.413 143.644C112.698 133.282 117.136 123.891 123.418 115.398C135.178 99.4662 149.116 85.8343 166.56 76.2273C183.895 66.6922 201.458 57.5884 218.854 48.1491C225.434 44.5794 231.966 40.866 238.248 36.7812C245.797 31.8699 250.881 24.9581 253.155 16.0818C253.992 12.8236 255.32 9.67317 255.978 6.379C256.385 4.35459 256.17 2.12656 255.858 0.0422462C255.512 -2.32956 253.753 -4.80919 256.624 -6.7258C261.302 -9.85227 264.054 -9.90015 267.272 -6.84556C270.813 -3.47952 274.331 -0.0895375 277.681 3.46816C295.986 22.8618 306.514 45.9689 310.067 72.2983C311.096 79.9288 311.599 87.6431 312.352 95.3216ZM270.466 34.0141C267.32 38.3145 264.688 42.6269 261.338 46.2684C257.976 49.9219 254.207 53.3718 250.068 56.091C243.26 60.5471 236.118 64.5241 228.94 68.3813C212.082 77.4372 195.106 86.2656 178.212 95.2617C162.623 103.563 149.762 115.17 138.372 128.515C130.273 138.014 125.368 148.915 125.284 161.504C125.236 167.877 125.846 174.346 126.923 180.635C129.005 192.721 132.618 204.329 140.143 214.343C145.527 221.518 152.418 226.25 161.415 227.651C170.388 229.053 179.038 227.519 187.305 224.189C228.449 207.611 258.072 178.406 275.97 138.349C291.391 103.827 286.654 69.0281 271.328 35.2958C271.112 34.8287 270.754 34.4333 270.466 34.0141Z" fill="black"/>
<path d="M565.019 -1.22774C565.019 -5.50416 565.198 -11.4936 564.983 -17.471C564.6 -27.8327 569.254 -34.984 578.79 -38.4458C592.369 -43.3811 606.055 -48.0409 619.862 -52.3053C641.768 -59.0614 663.961 -64.895 685.723 -72.0823C698.262 -76.227 710.19 -82.2403 722.369 -87.4511C725.384 -88.7448 728.303 -88.9484 730.947 -86.7323C733.543 -84.5642 733.711 -81.7492 732.837 -78.6946C727.98 -61.529 723.206 -44.3394 718.265 -27.1978C716.602 -21.448 714.903 -15.6622 712.546 -10.1879C709.651 -3.47976 704.782 1.40757 697.807 4.39028C683.019 10.7151 668.124 16.8842 653.803 24.1553C634.422 33.9899 615.543 44.7948 596.436 55.1564C594.056 56.4501 591.687 57.8636 589.162 58.81C580.943 61.9005 573.681 58.9417 571.228 50.5566C569.087 43.2016 567.986 35.4753 567.113 27.8328C566.072 18.7648 565.761 9.61307 565.019 -1.22774ZM586.099 39.7038C600.301 31.5103 613.413 23.9517 627.375 15.9019C623.738 12.2364 620.484 8.82245 617.086 5.56422C615.052 3.62365 612.624 2.07839 610.65 0.0659582C607.946 -2.68916 607.431 -6.28279 608.915 -9.24155C610.458 -12.3081 613.916 -14.3805 617.601 -13.7456C619.981 -13.3383 622.697 -12.5477 624.408 -10.9905C629.588 -6.25886 634.697 -1.35951 639.16 4.04293C642.916 8.60684 642.498 8.95422 647.786 6.05535C648.061 5.89963 648.276 5.64806 648.91 5.10902C646.35 2.03047 643.802 -1.02413 641.265 -4.10267C639.267 -6.53437 636.958 -8.78637 635.391 -11.4696C631.957 -17.3153 635.14 -23.9036 641.792 -25.2213C645.835 -26.0238 649.592 -24.9458 652.212 -21.9511C654.665 -19.148 656.723 -15.8419 658.29 -12.4399C659.989 -8.72648 660.922 -4.65367 662.31 -0.329326C664.727 -1.27565 667.107 -2.24595 669.512 -3.15634C675.937 -5.58803 682.385 -7.86401 689.408 -7.57652C694.05 -7.38486 696 -9.12176 696.742 -13.6977C697.257 -16.908 697.903 -20.1183 698.788 -23.2448C703.274 -39.1526 707.857 -55.0245 712.391 -70.9204C712.463 -71.1839 712.295 -71.5073 712.164 -72.2021C709.555 -71.0641 707.103 -69.9621 704.638 -68.9319C681.703 -59.3249 658.9 -49.3585 635.762 -40.2666C620.46 -34.2533 605.469 -27.7248 590.909 -20.0824C588.277 -18.7048 587.081 -17.0278 587.021 -14.0451C586.877 -7.19319 586.255 -0.353317 586.159 6.48657C585.98 17.3394 586.099 28.1922 586.099 39.7038Z" fill="black"/>
<path d="M446.396 194.602C447.007 173.854 450.56 153.538 454.975 133.318C456.661 125.58 457.942 117.746 459.533 109.983C461.591 99.8972 465.754 90.7573 472.334 82.8154C477.682 76.3588 484.537 72.0464 492.601 69.7944C502.794 66.9435 511.767 69.2913 519.281 76.7302C527.273 84.6481 531.999 94.4468 533.817 105.383C538.734 135.103 536.198 164.223 524.485 192.086C518.575 206.137 509.626 218.403 497.925 228.37C491.453 233.892 484.047 237.701 475.541 239.019C464.175 240.78 454.221 235.521 450.225 224.74C448.179 219.218 447.318 213.181 446.528 207.299C445.942 203.142 446.396 198.842 446.396 194.602ZM519.724 140.529C519.771 126.742 518.85 117.147 515.596 107.887C513.466 101.838 510.38 96.3514 505.403 92.2427C503.859 90.973 501.12 89.4996 499.684 90.0626C495.317 91.7636 491.285 94.3749 487.194 96.7587C486.703 97.0462 486.535 98.0764 486.416 98.7951C485.124 106.282 484.25 113.864 482.54 121.243C477.072 144.758 471.413 168.236 468.41 192.23C467.608 198.674 467.058 205.239 467.297 211.719C467.656 221.434 471.006 223.231 480.135 219.505C486.679 216.834 491.572 212.103 495.939 206.736C512.593 186.276 519.424 162.474 519.724 140.529Z" fill="black"/>
<path d="M1281.97 195.176C1289.36 193.523 1296.76 191.846 1304.16 190.217C1308.41 189.295 1312.65 188.301 1316.94 187.63C1323.38 186.624 1328.12 190.061 1328.33 196.566C1328.53 202.939 1328.06 209.371 1327.35 215.72C1326.21 225.878 1324.35 235.964 1323.39 246.134C1322.95 250.806 1323.39 255.741 1324.38 260.341C1325.91 267.432 1330.74 271.793 1337.84 273.47C1344.72 275.087 1351.65 275.171 1358.53 273.542C1372.37 270.283 1384.18 263.408 1393.52 252.687C1402.3 242.624 1404.98 230.634 1403.13 217.637C1401.74 207.874 1393.75 200.471 1383.86 199.764C1381.43 199.585 1378.53 200.279 1376.47 201.561C1372.63 203.945 1369.24 207.047 1365.68 209.886C1364.52 210.809 1363.47 211.863 1362.37 212.845C1362.01 212.785 1361.64 212.737 1361.28 212.677C1361.09 210.33 1360.54 207.946 1360.75 205.634C1362.13 191.211 1377.91 180.478 1392.39 184.371C1407.84 188.54 1417.7 198.399 1420.54 214.426C1423.62 231.879 1419.71 247.835 1407.63 260.808C1388.22 281.627 1364.38 291.019 1335.82 285.317C1320.48 282.262 1311.07 272.116 1310.31 256.496C1309.81 246.062 1311.45 235.497 1312.41 225.016C1312.99 218.631 1314.13 212.306 1314.97 205.933C1315.11 204.807 1314.99 203.633 1314.99 201.992C1308.89 203.382 1303.22 204.795 1297.5 205.945C1287.5 207.946 1277.5 209.958 1267.42 211.599C1264.16 212.138 1260.69 211.815 1257.36 211.432C1253.59 210.988 1250.55 209.072 1249.27 205.239C1248.03 201.537 1249.15 198.195 1251.88 195.715C1255.16 192.733 1258.64 189.87 1262.39 187.51C1278.24 177.532 1292.49 165.709 1304.77 151.55C1315.16 139.583 1322.27 125.867 1325.89 110.45C1326.82 106.485 1326.99 102.293 1327.15 98.1961C1327.3 94.3869 1329 91.5479 1332.23 90.7573C1335.41 89.9786 1339.28 91.4281 1340.19 94.842C1341.34 99.1544 1342.26 103.886 1341.68 108.222C1338.98 128.694 1329.71 146.219 1316.31 161.684C1306.38 173.135 1295.67 183.773 1283.59 192.972C1282.93 193.475 1282.37 194.098 1281.76 194.661C1281.82 194.853 1281.89 195.021 1281.97 195.176Z" fill="black"/>
<path d="M1336.57 -142.05C1335.96 -121.806 1333.75 -104.197 1325.85 -87.7384C1321.87 -79.4371 1316.94 -71.7348 1310.56 -65.1105C1297.91 -51.9458 1297.02 -36.4932 1301.77 -20.1062C1303.88 -12.859 1308.55 -7.27689 1315.7 -4.10251C1318.77 -2.73693 1321.85 -1.34739 1324.89 0.126005C1328.22 1.74314 1328.7 4.55819 1325.6 6.55865C1323.44 7.96017 1320.63 8.91847 1318.05 9.06221C1302.82 9.90073 1289.35 0.677044 1284.83 -14.6079C1278.91 -34.6724 1281.91 -53.8145 1296.27 -69.2312C1318.15 -92.7216 1323.46 -120.656 1321.28 -151.142C1320.9 -156.557 1320.15 -161.983 1319.06 -167.302C1314.58 -189.127 1299.99 -202.004 1280.1 -209.191C1268.3 -213.456 1258.29 -208.377 1251 -196.087C1249.93 -194.278 1249.69 -191.643 1249.9 -189.462C1251.38 -173.579 1259.79 -161.923 1272.65 -153.167C1275.92 -150.939 1279.76 -150.771 1283.33 -152.029C1287.5 -153.49 1291.53 -155.443 1295.47 -157.467C1298.92 -159.252 1300.16 -158.737 1300.43 -154.796C1300.97 -146.974 1298.1 -140.817 1291.6 -136.336C1280.63 -128.754 1267.94 -128.634 1257.23 -136.576C1239.16 -149.968 1229.83 -167.925 1229.93 -190.588C1229.95 -197.129 1232.03 -202.939 1236.03 -208.125C1250.95 -227.519 1273.33 -232.574 1294.66 -220.631C1318.21 -207.443 1332.28 -187.57 1334.96 -160.27C1335.61 -153.454 1336.17 -146.626 1336.57 -142.05Z" fill="black"/>
<path d="M982.286 162.426C981.819 161.6 981.508 160.929 981.089 160.342C969.46 144.147 967.654 126.514 974.593 108.222C985.253 80.1801 1006.36 63.1582 1034.32 54.1501C1046.11 50.3529 1058.23 48.4362 1070.62 51.419C1076.67 52.8804 1082.14 55.4199 1086.16 60.3791C1090.64 65.9133 1090.45 72.7652 1085.79 77.2213C1081.63 81.1983 1077.11 80.2759 1074.46 75.1969C1073.69 73.7355 1072.08 72.3699 1070.52 71.747C1065.28 69.6387 1059.84 70.0939 1054.49 71.4355C1046.38 73.4719 1038.92 76.9697 1032.34 82.1805C1015.87 95.2374 1004.87 111.96 999.215 132.204C997.384 138.756 997.097 145.237 999.514 151.765C1000.4 154.149 1001.36 154.976 1004.02 154.173C1010.31 152.28 1016.79 150.939 1023.29 152.748C1026.23 153.562 1029.2 155.012 1031.59 156.904C1034.77 159.42 1034.93 162.989 1031.86 165.661C1027.23 169.698 1022.48 173.866 1017.11 176.753C1008.32 181.473 999.023 185.27 989.883 189.319C981.137 193.2 972.296 196.877 963.526 200.687C956.504 203.741 949.313 206.209 941.608 206.628C938.605 206.784 935.507 206.628 932.564 206.053C929.286 205.406 928.281 203.25 929.704 200.16C930.745 197.92 932.001 195.548 933.808 193.955C939.323 189.079 944.755 183.952 950.928 180.047C960.188 174.178 970.059 169.266 979.666 163.948C980.491 163.493 981.305 163.001 982.286 162.426Z" fill="black"/>
<path d="M1183.02 26.8147C1179.02 23.2331 1175.08 19.5796 1171 16.1057C1166.06 11.8892 1160.92 7.91221 1156 3.65974C1154.73 2.56967 1153.76 0.952522 1153.09 -0.6167C1151.36 -4.64157 1153.35 -9.26538 1157.53 -9.81641C1175.85 -12.2361 1192.36 -20.5973 1209.92 -25.4128C1221.55 -28.5991 1233.25 -31.51 1244.93 -34.5526C1245.15 -34.6125 1245.36 -34.6365 1245.58 -34.6604C1251.15 -35.5109 1255.61 -33.3787 1256.89 -29.27C1258.16 -25.1972 1255.76 -20.4895 1250.4 -18.6688C1243.73 -16.4048 1236.83 -14.8115 1229.96 -13.2423C1210.37 -8.77423 1190.73 -4.47386 1171.12 -0.113575C1170.83 -0.0417019 1170.55 0.114008 1169.47 0.545244C1172.19 2.47383 1174.39 4.30659 1176.84 5.72009C1184.09 9.88871 1190.49 15.0156 1195.57 21.6998C1196.55 22.9935 1197.58 24.2872 1198.33 25.7247C1201.42 31.5823 1199.32 37.7035 1193.04 39.7518C1186.65 41.8362 1180.11 43.5611 1173.52 44.8188C1160.3 47.3464 1146.99 49.4547 1133.71 51.7306C1126.2 53.0124 1122.44 49.5625 1123.35 41.908C1124.15 35.14 1125.29 28.4079 1126.33 21.2925C1124.56 21.4482 1122.75 21.5441 1120.96 21.7837C1105.71 23.832 1090.43 24.5508 1075.15 22.167C1068.71 21.1608 1062.77 18.8848 1057.57 14.8359C1050.9 9.63714 1048.04 2.80923 1049.36 -5.56395C1050.98 -15.9496 1055.37 -25.0415 1064.08 -31.1986C1078.94 -41.704 1095.4 -47.873 1113.85 -46.4116C1119.79 -45.9444 1125.78 -43.9919 1131.31 -41.668C1134.59 -40.2905 1137.51 -37.2479 1139.68 -34.2771C1142.78 -30.0726 1141.71 -23.58 1138.13 -19.7828C1136.3 -17.8422 1133.69 -17.6146 1132.25 -19.9385C1125.76 -30.4199 1115.38 -30.0845 1105.33 -29.234C1095.84 -28.4314 1087.01 -24.73 1078.97 -19.4713C1073.56 -15.9376 1069.93 -11.0742 1068.49 -4.68948C1067.53 -0.44899 1068.14 1.93478 1072.06 3.68368C1076.08 5.46852 1080.43 6.72631 1084.76 7.55285C1100.01 10.4757 1115.29 9.0981 1130.54 7.24139C1131.72 7.09764 1132.85 6.64245 1134 6.34298C1140.54 4.66594 1145.32 9.22987 1143.87 15.8182C1142.54 21.8675 1141.14 27.9168 1139.79 33.9661C1139.54 35.0921 1139.41 36.242 1139.29 36.9728C1153.74 33.8702 1167.99 30.8037 1182.24 27.7491C1182.5 27.4496 1182.77 27.1382 1183.02 26.8147Z" fill="black"/>
<path d="M969.006 -39.5119C976.746 -43.429 984.523 -47.2502 992.168 -51.3589C993.209 -51.9219 993.747 -53.7906 994.118 -55.1562C995.626 -60.8222 996.81 -66.572 998.473 -72.1901C999.131 -74.4181 1000.46 -76.5743 1001.93 -78.4071C1005.17 -82.4679 1010.47 -83.9053 1015.16 -82.1804C1020.08 -80.3716 1022.86 -76.5983 1022.78 -71.4953C1022.74 -67.9017 1022.29 -63.7929 1020.52 -60.8222C1013.74 -49.4543 1012.95 -36.6969 1010.95 -24.191C1009.01 -12.0565 1007.25 0.101972 1005.35 12.2365C1005.22 13.1109 1004.65 14.5604 1004.19 14.5963C1003.27 14.6682 1001.91 14.225 1001.4 13.5062C999.55 10.8709 997.181 8.22359 996.451 5.22889C994.896 -1.16779 993.855 -7.75614 993.329 -14.3205C992.814 -20.6813 993.221 -27.1139 993.221 -34.2892C991.414 -33.4986 990.385 -33.0913 989.38 -32.6001C983.422 -29.7013 977.632 -26.3233 971.447 -24.0593C967.415 -22.5859 962.725 -21.927 958.454 -22.3223C951.814 -22.9213 948.153 -28.6591 949.325 -35.2954C949.684 -37.3078 950.294 -39.3442 951.192 -41.177C954.972 -48.8913 958.836 -56.5578 962.797 -64.1883C972.224 -82.3721 978.912 -101.526 982.98 -121.567C983.937 -126.298 984.248 -131.341 983.769 -136.133C982.8 -145.848 976.435 -151.418 966.685 -151.43C954.984 -151.442 944.312 -147.453 934.095 -142.098C927.479 -138.624 921.641 -134.18 917.226 -128.011C911.758 -120.345 912.5 -115.949 920.313 -110.618C921.832 -109.576 923.423 -108.594 924.799 -107.372C927.12 -105.299 926.797 -103.143 923.854 -102.257C909.042 -97.7648 896.576 -105.874 895.224 -119.65C894.746 -124.466 895.81 -129.065 898.347 -133.102C900.991 -137.319 903.611 -141.787 907.176 -145.141C924.56 -161.528 945.365 -169.087 969.173 -166.619C986.844 -164.798 998.114 -151.717 998.509 -133.929C998.76 -122.561 995.53 -111.78 992.563 -100.975C987.275 -81.6893 979.546 -63.3737 970.549 -45.5732C969.688 -43.8722 968.982 -42.0993 968.204 -40.3504C968.444 -40.0749 968.719 -39.7994 969.006 -39.5119Z" fill="black"/>
<path d="M733.16 154.628C726.939 133.701 729.248 113.769 735.422 94.1834C737.288 88.2778 740.865 82.8874 743.916 77.4011C744.945 75.5563 746.668 74.047 748.259 72.5856C750.4 70.6211 752.937 69.567 755.688 71.244C758.488 72.945 758.596 75.6881 757.686 78.4672C754.013 89.6554 751.226 101.011 749.826 112.751C748.127 127.065 748.474 141.188 751.956 155.203C752.769 158.474 753.762 161.816 753.726 165.122C753.702 168.368 752.757 171.698 751.716 174.813C750.975 177.041 749.072 177.4 746.919 176.082C746.129 175.603 744.765 175.16 744.107 175.507C740.698 177.328 737.563 176.466 734.44 174.944C714.784 165.361 694.325 165.11 673.688 170.476C667.502 172.082 661.592 175.34 656.089 178.694C652.715 180.754 650.346 184.468 647.738 187.211C639.124 182.862 636.659 175.555 636.767 167.254C637.006 148.531 646.529 134.983 661.532 124.909C664.99 122.585 669.069 121.076 673.041 119.698C676.415 118.524 680.148 118.74 682.995 121.076C684.575 122.381 685.436 124.717 686.178 126.742C686.369 127.257 684.982 128.479 684.168 129.197C683.642 129.653 682.696 129.629 682.158 130.084C674.118 136.816 666.641 144.063 661.556 153.407C661.042 154.353 660.623 155.371 660.204 156.377C660.037 156.761 659.977 157.204 659.582 158.713C671.319 151.993 683.259 148.711 696 148.387C708.61 148.088 720.909 149.525 733.16 154.628Z" fill="black"/>
<path d="M1489.52 -5.19285C1489.52 1.17987 1489.59 7.14535 1489.44 13.1108C1489.41 13.9014 1488.47 15.0034 1487.68 15.3987C1470.81 23.9635 1458.3 37.1402 1447.98 52.7007C1444.21 58.3906 1440.23 63.9488 1436.37 69.5788C1435.88 70.2976 1435.42 71.0642 1435.12 71.8668C1434.01 74.8974 1432.27 77.0656 1428.67 76.5624C1425.55 76.1312 1422.57 73.0646 1422.21 69.6387C1421.84 66.081 1421.72 62.4754 1421.66 58.8937C1421.42 45.9566 1421.24 33.0195 1421.03 20.0824C1421.02 19.5554 1420.94 19.0283 1420.86 18.082C1419.92 18.5851 1419.19 18.9085 1418.53 19.3517C1417.35 20.1304 1416.24 21.0168 1415.06 21.7834C1411.35 24.1792 1407.45 25.9281 1403.2 23.3047C1398.99 20.6933 1398.67 16.4169 1399.15 12.0327C1399.72 6.73804 1400.5 1.46738 1401.07 -3.82725C1401.25 -5.43241 1401.08 -7.07351 1401.07 -8.70263C1401.05 -11.865 1399.24 -13.1228 1396.3 -13.2066C1393.69 -13.2905 1391.07 -13.2546 1388.5 -13.578C1384.01 -14.129 1380.36 -16.1534 1378.74 -20.6335C1377.14 -25.0177 1378.81 -28.7791 1381.69 -32.0254C1383.13 -33.6425 1384.9 -34.9482 1386.48 -36.4455C1389.87 -39.6439 1393.41 -42.7104 1396.6 -46.1124C1401.1 -50.9279 1402.78 -56.6657 1401.55 -63.29C1400.63 -68.2133 1402.17 -71.0762 1405.68 -71.8788C1409.37 -72.7293 1412.72 -70.5012 1414.12 -65.9733C1417 -56.7256 1415.02 -48.2207 1409.26 -40.7459C1405.49 -35.8586 1401 -31.5222 1396.84 -26.9463C1395.99 -26.012 1395.1 -25.0896 1393.91 -23.8079C1396.71 -23.0772 1398.98 -22.4662 1401.26 -21.8913C1407.38 -20.334 1411.23 -16.4409 1412.03 -10.2119C1412.65 -5.39646 1412.51 -0.47318 1412.67 4.41417C1412.72 6.13912 1412.68 7.86406 1412.68 10.176C1413.93 9.39735 1414.87 8.79839 1415.82 8.21143C1417.67 7.07344 1419.41 5.70787 1421.39 4.85738C1426.45 2.67724 1431.2 4.65372 1432.24 10.0442C1433.34 15.7581 1433.25 21.6876 1433.83 27.5213C1433.97 28.9707 1434.32 31.3305 1435.15 31.618C1437.32 32.3727 1439.63 32.3966 1441.38 29.8092C1447.43 20.8491 1454.28 12.5717 1463.31 6.36672C1471.16 0.97626 1479.62 -3.0726 1489.52 -5.19285Z" fill="black"/>
<path d="M1374.4 139.2C1375.48 139.092 1375.91 139.104 1376.32 138.996C1387.33 136.049 1398.33 133.102 1409.3 130.156C1409.34 129.844 1409.46 129.581 1409.36 129.437C1407.31 126.311 1406.44 123.064 1408.68 119.686C1410.92 116.284 1414.39 115.518 1418.13 115.769C1425.61 116.284 1433.08 117.111 1440.57 117.422C1443.64 117.554 1446.83 117.051 1449.81 116.224C1456.68 114.344 1462.18 118.692 1461.02 125.664C1458.45 141.224 1455.7 156.749 1452.95 172.261C1452.55 174.501 1451.89 176.717 1451.08 178.837C1449.98 181.712 1447.82 183.425 1444.63 183.509C1441.49 183.593 1439.01 182.144 1437.86 179.305C1436.86 176.837 1436.19 174.106 1436.02 171.447C1435.22 158.977 1436.74 146.686 1439.51 134.54C1439.75 133.498 1440 132.456 1440.28 131.27C1435.82 131.27 1431.63 131.222 1427.43 131.33C1426.87 131.342 1426.05 132.072 1425.83 132.659C1423.64 138.313 1418.95 140.805 1413.62 142.566C1403.31 145.98 1392.97 149.334 1382.71 152.867C1377.06 154.808 1371.49 156.964 1365.96 159.216C1361.72 160.929 1357.67 161.337 1354.08 158.066C1350.62 154.916 1350.64 150.843 1352.2 146.902C1356.59 135.774 1361.24 124.765 1365.69 113.661C1367.51 109.121 1369.15 104.509 1370.68 99.8733C1372.23 95.2136 1375.35 92.7459 1379.45 93.285C1383.68 93.836 1386.55 97.2859 1386.19 102.221C1385.95 105.539 1385.2 108.905 1384.13 112.068C1381.48 119.89 1378.51 127.616 1375.68 135.378C1375.25 136.492 1374.92 137.618 1374.4 139.2Z" fill="black"/>
<path d="M1270.2 139.355C1271.87 134.995 1273.57 130.695 1275.19 126.358C1277.48 120.189 1277.39 114.032 1275.12 107.863C1273.62 103.79 1270.84 101.119 1266.69 99.8971C1254.01 96.1717 1242.11 97.8128 1231.32 105.515C1227.73 108.079 1223.9 110.69 1224.15 116.308C1224.28 119.231 1217.69 121.663 1214.31 120.345C1210.83 118.979 1208.34 115.481 1208.99 111.157C1209.55 107.384 1210.68 103.419 1212.62 100.173C1219.2 89.1402 1229.72 83.8934 1241.94 81.5456C1243.75 81.1982 1245.6 81.0425 1247.44 80.9107C1250.96 80.6592 1252.99 77.5926 1251.09 74.6578C1245.07 65.4341 1237.32 59.2171 1225.41 63.3618C1218.98 65.6018 1213.32 69.9861 1207.2 73.1724C1205.63 73.987 1203.1 74.7297 1201.88 74.0229C1200.19 73.0407 1198.45 70.7527 1198.22 68.8361C1197.57 63.2181 1200.33 58.75 1204.54 55.2282C1210.43 50.281 1217.44 47.9571 1224.96 47.6097C1229.37 47.4061 1233.8 48.2566 1238.24 48.4961C1239.71 48.58 1241.21 48.2326 1242.68 47.3701C1242.88 47.442 1243.15 47.442 1243.29 47.5858C1248.6 52.3653 1254.31 56.7854 1259.1 62.0441C1264.31 67.77 1267.23 74.538 1262.51 82.5039C1272.52 85.4028 1281.97 88.7448 1286.52 99.0226C1289.42 105.599 1290.29 112.451 1288.34 119.423C1285.56 129.329 1277.09 140.673 1270.2 139.355Z" fill="black"/>
<path d="M196.864 26.2515C185.415 25.5447 174.504 23.0652 163.868 19.5075C136.159 10.2359 112.686 -5.18086 95.3261 -29.0666C85.8507 -42.0995 79.773 -56.486 79.9166 -72.909C79.9524 -76.6344 80.8617 -80.4556 81.9624 -84.0492C82.9075 -87.1517 85.9464 -88.5532 88.6502 -87.9423C91.4139 -87.3074 93.6033 -84.8398 93.1846 -81.6295C90.72 -62.3077 99.0469 -46.7712 110.796 -32.8039C128.466 -11.7931 150.372 2.9767 177.411 9.22963C187.449 11.5535 197.654 11.6494 207.847 9.88848C208.912 9.7088 210.001 9.56505 211.077 9.54109C215.181 9.43328 218.196 11.5296 218.926 14.9555C219.668 18.3934 217.909 22.0829 214.032 23.1011C208.445 24.5745 202.607 25.2453 196.864 26.2515Z" fill="black"/>
<path d="M1109.33 110.954C1109.33 108.342 1109.1 105.707 1109.38 103.132C1109.91 98.3041 1112.69 95.4172 1117.38 93.9438C1130.44 89.8351 1143.42 85.4868 1156.45 81.3062C1159.02 80.4796 1161.69 79.4614 1164.31 79.4614C1166 79.4614 1168.5 80.803 1169.16 82.2285C1169.82 83.666 1169.29 86.5768 1168.16 87.7268C1166 89.9069 1163.24 91.7517 1160.39 92.9136C1151.04 96.7349 1141.57 100.269 1132.07 103.707C1129.62 104.593 1129.24 105.647 1129.56 108.199C1130.84 118.44 1132.43 128.706 1132.65 138.996C1132.92 152.796 1132.19 166.619 1131.52 180.407C1131.37 183.641 1130.29 187.151 1128.57 189.87C1127.4 191.727 1124.49 193.152 1122.19 193.464C1119.39 193.835 1117.54 191.391 1116.55 188.828C1115.88 187.127 1115.34 185.294 1115.17 183.485C1112.97 159.324 1110.85 135.163 1108.71 111.002C1108.9 110.978 1109.12 110.966 1109.33 110.954Z" fill="black"/>
<path d="M1364.75 11.2783C1364.43 24.0477 1359.29 37.4281 1348 48.0652C1331.29 63.8054 1306.1 62.4757 1292.73 44.9867C1290.17 41.6326 1288.49 37.4281 1287.1 33.3792C1285.75 29.4622 1287.26 25.9284 1289.9 24.443C1292.51 22.9936 1295.72 23.6644 1298.74 26.5633C1301.17 28.8991 1303.33 31.5105 1305.74 33.8464C1317.19 44.9627 1331.75 44.1721 1341.29 31.3668C1350.9 18.4656 1352.4 4.18689 1345.83 -10.5231C1344.33 -13.9131 1341.37 -16.9317 1338.44 -19.3634C1333.69 -23.2925 1332.33 -27.533 1335.55 -31.2224C1338.68 -34.8281 1344.2 -34.5406 1348.25 -30.5636C1358.99 -20.0103 1364.74 -6.36645 1364.75 11.2783Z" fill="black"/>
<path d="M593.685 102.557C588.468 101.922 584.341 98.8671 583.228 94.411C582.091 89.8351 584.377 85.0675 589.054 82.8395C611.116 72.346 633.225 61.9485 655.299 51.479C665.217 46.7713 675.027 41.848 685.005 37.2841C687.458 36.1581 690.413 35.5592 693.093 35.643C696.347 35.7508 698.692 37.9429 699.589 41.2012C700.499 44.4714 699.41 47.2265 696.898 49.3946C695.917 50.2332 694.78 50.916 693.631 51.5269C670.864 63.5656 648.109 75.6402 625.281 87.5591C618.928 90.8772 612.336 93.7162 605.876 96.8187C604.225 97.6093 602.705 98.7114 601.042 99.478C598.638 100.58 596.149 101.526 593.685 102.557Z" fill="black"/>
<path d="M1077.32 156.557C1077.32 165.182 1077.71 172.489 1077.16 179.724C1076.85 183.725 1075.21 187.714 1073.65 191.487C1072.43 194.446 1070.34 194.877 1068.41 192.386C1065.4 188.48 1061.98 184.372 1060.63 179.796C1055.41 162.175 1050.91 144.315 1050.16 125.795C1050.01 122.346 1050.32 118.812 1050.97 115.422C1051.94 110.307 1055.54 107.144 1060.21 106.629C1064.84 106.114 1069 108.486 1071.18 113.206C1074.98 121.471 1075.74 130.395 1076.44 139.296C1076.93 145.489 1077.08 151.694 1077.32 156.557Z" fill="black"/>
<path d="M1146.86 164.762C1146.86 154.329 1146.84 143.883 1146.87 133.45C1146.89 130.192 1146.85 126.897 1147.3 123.687C1147.88 119.566 1150.93 117.123 1154.65 117.219C1158.43 117.314 1161.14 119.878 1161.58 124.094C1164.32 150.316 1164.99 176.621 1164.54 202.951C1164.47 207.095 1163.23 211.312 1162.02 215.337C1160.84 219.278 1158.22 221.123 1155.25 220.823C1151.53 220.44 1150.08 217.721 1149.64 214.558C1148.85 208.964 1148.05 203.346 1147.92 197.716C1147.65 186.731 1147.83 175.747 1147.83 164.762C1147.52 164.762 1147.2 164.762 1146.86 164.762Z" fill="black"/>
<path d="M100.172 72.0586C100.435 67.1953 102.481 63.362 105.95 60.5111C109.288 57.7559 112.877 55.2524 116.574 53.0004C129.77 44.9626 143.792 38.8774 159.094 36.2301C162.575 35.6311 166.26 35.5832 169.79 35.9545C174.492 36.4457 177.518 39.9794 177.279 43.9444C177.076 47.2625 175.185 49.3708 172.075 50.3171C150.48 56.8935 130.105 66.4765 109.647 75.8439C108.857 76.2033 108.068 76.5866 107.338 77.0538C103.234 79.7011 101.571 78.9824 100.495 74.0831C100.339 73.3404 100.255 72.5737 100.172 72.0586Z" fill="black"/>
<path d="M498.141 -0.14936C498.511 9.74512 497.411 19.412 494.815 28.9591C494.288 30.8997 493.331 31.5585 491.955 30.6122C490.149 29.3664 488.019 27.857 487.277 25.9644C485.052 20.3344 483.078 14.5606 481.666 8.679C478.651 -3.79092 476.139 -16.3687 473.244 -28.8745C471.82 -35.0556 473.507 -39.6914 478.412 -41.7517C483.425 -43.848 489.479 -41.9314 491.871 -36.4691C494.109 -31.3661 495.664 -25.8079 496.549 -20.2857C497.602 -13.6614 497.65 -6.86946 498.141 -0.14936Z" fill="black"/>
<path d="M504.888 7.38513C504.888 3.0488 504.589 -1.31146 504.96 -5.62382C505.45 -11.3138 509.267 -14.9553 514.268 -15.1949C519.329 -15.4344 523.779 -12.2601 524.473 -6.64203C525.55 2.16238 525.981 11.0506 526.328 19.9269C526.423 22.2987 525.49 24.8622 524.473 27.0903C522.822 30.7079 519.867 32.8161 515.727 32.7802C511.588 32.7442 508.609 30.612 507.125 26.9106C506.013 24.1315 505.343 21.0889 505.044 18.1062C504.697 14.5604 504.96 10.9548 504.96 7.37317C504.936 7.38515 504.912 7.38513 504.888 7.38513Z" fill="black"/>
<path d="M1382.56 73.8312C1380.59 73.2442 1376.77 72.6094 1373.4 71.0162C1366.66 67.8538 1364.28 60.1634 1367.88 53.623C1369.64 50.4246 1371.83 47.3581 1374.32 44.6748C1379.7 38.8531 1387.58 38.4818 1393.99 43.3691C1400.93 48.6637 1402.42 55.2042 1398.2 62.4753C1396.85 64.8112 1395.27 67.0512 1393.61 69.1834C1391.21 72.25 1387.89 73.8072 1382.56 73.8312Z" fill="black"/>
<path d="M964.711 54.7974C960.523 54.7854 957.724 52.8089 957.078 49.7902C956.444 46.7716 958.059 43.693 961.636 42.4472C967.259 40.4707 973.002 38.8536 978.744 37.2125C984.894 35.4516 991.067 33.7626 997.277 32.2174C999.011 31.7861 1000.97 31.6424 1002.72 31.9778C1005.75 32.5528 1007.71 34.5772 1008.16 37.7156C1008.59 40.6983 1007.42 43.2019 1004.8 44.5675C1002.83 45.5976 1000.54 46.1247 998.353 46.6758C988.052 49.2871 977.728 51.8266 967.415 54.3661C966.374 54.6177 965.285 54.7015 964.711 54.7974Z" fill="black"/>
<path d="M98.6282 46.2562C95.8047 44.1719 95.2783 41.4407 97.1447 38.8293C98.9991 36.2419 101.2 33.6305 103.821 31.9056C111.238 27.0182 119.481 24.0475 128.323 22.8736C129.818 22.6819 131.374 22.6579 132.857 22.8496C135.381 23.173 137.415 24.3709 138.014 27.0781C138.588 29.6296 137.427 31.5822 135.393 32.9238C133.683 34.0498 131.864 35.1159 129.938 35.7747C120.522 38.9731 111.059 42.0277 101.619 45.1302C100.614 45.4656 99.6212 45.8849 98.6282 46.2562Z" fill="black"/>
<path d="M942.386 8.57115C946.908 8.4873 950.318 11.3143 950.486 15.2673C950.677 19.9151 946.322 24.4191 941.465 24.6107C936.99 24.7785 933.389 21.2567 933.389 16.6808C933.377 12.62 937.78 8.655 942.386 8.57115Z" fill="black"/>
<path d="M256.181 113.23C255.452 124.789 252.473 136.433 244.888 146.088C239.635 152.784 233.39 158.845 226.858 164.331C223.472 167.17 218.615 168.416 214.236 169.806C212.477 170.369 210.12 169.722 208.23 169.051C204.796 167.841 203.313 164.966 205.048 161.804C207.488 157.384 210.372 153.119 213.674 149.298C217.921 144.363 222.91 140.086 227.301 135.271C236.273 125.436 241.394 114.236 239.312 100.472C238.618 95.8966 239.934 93.6326 242.794 92.5545C245.749 91.4405 249.171 92.6384 251.611 95.8726C255.344 100.82 255.978 106.654 256.181 113.23Z" fill="black"/>
</g>
</g>
<defs>
<clipPath id="clip0_264_1253">
<rect width="1440" height="129.274" fill="white" transform="translate(0 0.162598)"/>
</clipPath>
<clipPath id="clip1_264_1253">
<rect width="1540" height="1071" fill="white" transform="translate(-50 -471)"/>
</clipPath>
</defs>
</svg>
