<svg width="1695" height="1063" viewBox="0 0 1695 1063" fill="none" xmlns="http://www.w3.org/2000/svg">
<path fill-rule="evenodd" clip-rule="evenodd" d="M1695 990.929H1579.71L1579.71 1063H1578.44L1578.44 990.929H1467.16V1063H1465.89V990.929H1354.61V1063H1353.34V990.929L1242.06 990.929V1063H1240.79V990.929H1129.51V1063H1128.24V990.929H1016.96V1063H1015.69V990.929H904.41V1063H903.14V990.929L791.859 990.929V1063H790.589V990.929H679.311V1063H678.041V990.929H566.761V1063H565.491V990.929H454.212V1063H452.942V990.929H341.662V1063H340.392V990.929H229.111V1063H227.841V990.929H116.561V1063H115.291V990.929L0 990.929V989.659L115.291 989.659V920.344L0 920.344V919.074L115.291 919.074V849.763L0 849.763V848.493L115.291 848.493V779.177H0V777.907H115.291V708.592H0V707.322H115.291V638.011H0V636.741H115.291V567.421H0V566.151H115.291L115.291 496.836H0V495.566H115.291L115.291 426.254H0V424.985H115.291V355.669H0V354.399H115.291V285.088H0V283.818H115.291V214.503H0V213.233H115.291V143.913H0V142.643H115.291V73.3317H0V72.0618H115.291V0H116.561V72.0618L227.841 72.0618V0H229.111V72.0618H340.392V0H341.662V72.0618H452.942V0H454.212V72.0618H565.491V0H566.761V72.0618H678.041V0H679.311V72.0618L790.589 72.0618V0H791.859V72.0618H903.14V0H904.41V72.0618H1015.69V0H1016.96V72.0618H1128.24V0H1129.51V72.0618H1240.79V0H1242.06V72.0618H1353.34V0H1354.61V72.0618L1465.89 72.0618V0H1467.16V72.0618H1578.44L1578.44 0H1579.71L1579.71 72.0618H1695V73.3317H1579.71V142.643H1695V143.913H1579.71L1579.71 213.233H1695V214.503H1579.71V283.818H1695V285.088H1579.71L1579.71 354.399H1695V355.669H1579.71L1579.71 424.985H1695V426.254H1579.71V495.566H1695V496.836H1579.71L1579.71 566.151H1695V567.421H1579.71V636.741H1695V638.011H1579.71L1579.71 707.322H1695V708.592H1579.71L1579.71 777.907H1695V779.177H1579.71V848.493H1695V849.763H1579.71L1579.71 919.074H1695V920.344H1579.71V989.659H1695V990.929ZM116.561 73.3317L227.841 73.3317V142.643L116.561 142.643V73.3317ZM116.561 143.913L227.841 143.913V213.233L116.561 213.233V143.913ZM116.561 214.503L227.841 214.503V283.818L116.561 283.818V214.503ZM116.561 285.088L227.841 285.088V354.399L116.561 354.399V285.088ZM116.561 355.669L227.841 355.669V424.985L116.561 424.985V355.669ZM116.561 426.254L227.841 426.254L227.841 495.566L116.561 495.566L116.561 426.254ZM116.561 496.836L227.841 496.836L227.841 566.151H116.561V496.836ZM116.561 567.421H227.841V636.741H116.561V567.421ZM116.561 638.011H227.841V707.322H116.561V638.011ZM116.561 708.592H227.841V777.907H116.561V708.592ZM116.561 779.177H227.841V848.493H116.561V779.177ZM116.561 849.763H227.841V919.074H116.561V849.763ZM116.561 920.344H227.841V989.659H116.561V920.344ZM229.111 989.659H340.392V920.344H229.111V989.659ZM341.662 989.659V920.344H452.942V989.659H341.662ZM229.111 919.074H340.392V849.763H229.111V919.074ZM341.662 919.074V849.763H452.942V919.074H341.662ZM229.111 848.493H340.392V779.177H229.111V848.493ZM341.662 848.493V779.177H452.942V848.493H341.662ZM229.111 777.907H340.392V708.592H229.111V777.907ZM341.662 777.907V708.592H452.942V777.907H341.662ZM229.111 707.322H340.392V638.011H229.111V707.322ZM341.662 707.322V638.011H452.942V707.322H341.662ZM229.111 636.741H340.392V567.421H229.111V636.741ZM341.662 636.741V567.421H452.942V636.741H341.662ZM229.111 566.151H340.392L340.392 496.836H229.111V566.151ZM341.662 566.151V496.836H452.942L452.942 566.151H341.662ZM229.111 495.566H340.392L340.392 426.254H229.111L229.111 495.566ZM341.662 495.566L341.662 426.254H452.942L452.942 495.566H341.662ZM229.111 424.985H340.392V355.669H229.111V424.985ZM341.662 424.985V355.669H452.942V424.985H341.662ZM229.111 354.399H340.392V285.088H229.111V354.399ZM341.662 354.399V285.088H452.942V354.399H341.662ZM229.111 283.818H340.392V214.503H229.111V283.818ZM341.662 283.818V214.503H452.942V283.818H341.662ZM229.111 213.233H340.392V143.913H229.111V213.233ZM341.662 213.233V143.913H452.942V213.233H341.662ZM229.111 142.643H340.392V73.3317H229.111V142.643ZM341.662 142.643V73.3317H452.942V142.643H341.662ZM566.761 73.3317H678.041L678.041 142.643H566.761V73.3317ZM566.761 143.913H678.041V213.233H566.761V143.913ZM565.491 213.233V143.913H454.212V213.233H565.491ZM566.761 214.503H678.041V283.818H566.761V214.503ZM565.491 283.818V214.503H454.212V283.818H565.491ZM566.761 285.088H678.041L678.041 354.399H566.761V285.088ZM565.491 354.399V285.088H454.212V354.399H565.491ZM566.761 355.669H678.041V424.985H566.761V355.669ZM565.491 424.985V355.669H454.212V424.985H565.491ZM566.761 426.254H678.041V495.566H566.761L566.761 426.254ZM565.491 495.566L565.491 426.254H454.212L454.212 495.566H565.491ZM566.761 496.836H678.041L678.041 566.151H566.761L566.761 496.836ZM565.491 566.151L565.491 496.836H454.212V566.151H565.491ZM566.761 567.421H678.041V636.741H566.761V567.421ZM565.491 636.741V567.421H454.212V636.741H565.491ZM566.761 638.011H678.041V707.322H566.761V638.011ZM565.491 707.322V638.011H454.212V707.322H565.491ZM566.761 708.592H678.041L678.041 777.907H566.761V708.592ZM565.491 777.907V708.592H454.212V777.907H565.491ZM566.761 779.177H678.041V848.493H566.761V779.177ZM565.491 848.493V779.177H454.212V848.493H565.491ZM566.761 849.763H678.041V919.074H566.761V849.763ZM565.491 919.074V849.763H454.212V919.074H565.491ZM566.761 920.344H678.041L678.041 989.659H566.761V920.344ZM565.491 989.659V920.344H454.212V989.659H565.491ZM565.491 142.643V73.3317H454.212V142.643H565.491ZM679.311 989.659H790.589V920.344H679.311L679.311 989.659ZM791.859 989.659V920.344L903.14 920.344V989.659L791.859 989.659ZM679.311 919.074H790.589L790.589 849.763H679.311V919.074ZM791.859 919.074L791.859 849.763L903.14 849.763L903.14 919.074L791.859 919.074ZM679.311 848.493H790.589V779.177H679.311V848.493ZM791.859 848.493V779.177H903.14V848.493L791.859 848.493ZM679.311 777.907H790.589L790.589 708.592H679.311L679.311 777.907ZM791.859 777.907L791.859 708.592H903.14L903.14 777.907H791.859ZM679.311 707.322H790.589V638.011H679.311V707.322ZM791.859 707.322V638.011H903.14V707.322H791.859ZM679.311 636.741H790.589V567.421H679.311V636.741ZM791.859 636.741V567.421H903.14V636.741H791.859ZM679.311 566.151H790.589L790.589 496.836L679.311 496.836L679.311 566.151ZM791.859 566.151L791.859 496.836H903.14L903.14 566.151H791.859ZM679.311 495.566L790.589 495.566V426.254L679.311 426.254V495.566ZM791.859 495.566V426.254H903.14V495.566H791.859ZM679.311 424.985L790.589 424.985V355.669L679.311 355.669V424.985ZM791.859 424.985V355.669H903.14V424.985H791.859ZM679.311 354.399L790.589 354.399L790.589 285.088L679.311 285.088L679.311 354.399ZM791.859 354.399L791.859 285.088H903.14V354.399H791.859ZM679.311 283.818L790.589 283.818V214.503L679.311 214.503V283.818ZM791.859 283.818V214.503H903.14L903.14 283.818H791.859ZM679.311 213.233L790.589 213.233V143.913L679.311 143.913V213.233ZM791.859 213.233V143.913H903.14V213.233H791.859ZM679.311 142.643L790.589 142.643L790.589 73.3317L679.311 73.3317L679.311 142.643ZM791.859 142.643L791.859 73.3317H903.14L903.14 142.643H791.859ZM1016.96 73.3317H1128.24L1128.24 142.643H1016.96L1016.96 73.3317ZM1016.96 143.913H1128.24V213.233H1016.96L1016.96 143.913ZM1015.69 213.233L1015.69 143.913H904.41V213.233H1015.69ZM1016.96 214.503H1128.24V283.818H1016.96V214.503ZM1015.69 283.818V214.503H904.41L904.41 283.818H1015.69ZM1016.96 285.088H1128.24V354.399H1016.96V285.088ZM1015.69 354.399V285.088H904.41V354.399H1015.69ZM1016.96 355.669H1128.24V424.985H1016.96V355.669ZM1015.69 424.985V355.669H904.41V424.985H1015.69ZM1016.96 426.254H1128.24V495.566H1016.96V426.254ZM1015.69 495.566V426.254H904.41V495.566H1015.69ZM1016.96 496.836H1128.24L1128.24 566.151H1016.96L1016.96 496.836ZM1015.69 566.151L1015.69 496.836H904.41L904.41 566.151L1015.69 566.151ZM1016.96 567.421H1128.24V636.741H1016.96V567.421ZM1015.69 636.741V567.421L904.41 567.421V636.741L1015.69 636.741ZM1016.96 638.011H1128.24V707.322H1016.96V638.011ZM1015.69 707.322V638.011L904.41 638.011V707.322L1015.69 707.322ZM1016.96 708.592H1128.24V777.907H1016.96L1016.96 708.592ZM1015.69 777.907L1015.69 708.592L904.41 708.592L904.41 777.907L1015.69 777.907ZM1016.96 779.177H1128.24V848.493H1016.96L1016.96 779.177ZM1015.69 848.493L1015.69 779.177L904.41 779.177V848.493H1015.69ZM1016.96 849.763H1128.24V919.074H1016.96V849.763ZM1015.69 919.074V849.763H904.41L904.41 919.074H1015.69ZM1016.96 920.344H1128.24V989.659H1016.96V920.344ZM1015.69 989.659V920.344H904.41V989.659H1015.69ZM1015.69 142.643L1015.69 73.3317H904.41L904.41 142.643H1015.69ZM1129.51 989.659H1240.79V920.344H1129.51V989.659ZM1242.06 989.659V920.344L1353.34 920.344V989.659L1242.06 989.659ZM1129.51 919.074H1240.79V849.763H1129.51V919.074ZM1242.06 919.074L1242.06 849.763L1353.34 849.763V919.074L1242.06 919.074ZM1129.51 848.493H1240.79L1240.79 779.177L1129.51 779.177V848.493ZM1242.06 848.493V779.177H1353.34L1353.34 848.493L1242.06 848.493ZM1129.51 777.907L1240.79 777.907V708.592L1129.51 708.592V777.907ZM1242.06 777.907V708.592H1353.34V777.907H1242.06ZM1129.51 707.322L1240.79 707.322V638.011L1129.51 638.011V707.322ZM1242.06 707.322V638.011H1353.34V707.322H1242.06ZM1129.51 636.741L1240.79 636.741V567.421L1129.51 567.421V636.741ZM1242.06 636.741V567.421H1353.34V636.741H1242.06ZM1129.51 566.151L1240.79 566.151V496.836H1129.51L1129.51 566.151ZM1242.06 566.151L1242.06 496.836H1353.34V566.151H1242.06ZM1129.51 495.566H1240.79V426.254H1129.51V495.566ZM1242.06 495.566V426.254H1353.34V495.566H1242.06ZM1129.51 424.985H1240.79V355.669H1129.51V424.985ZM1242.06 424.985V355.669H1353.34V424.985H1242.06ZM1129.51 354.399H1240.79L1240.79 285.088H1129.51V354.399ZM1242.06 354.399L1242.06 285.088H1353.34L1353.34 354.399H1242.06ZM1129.51 283.818H1240.79L1240.79 214.503H1129.51V283.818ZM1242.06 283.818V214.503H1353.34L1353.34 283.818H1242.06ZM1129.51 213.233H1240.79V143.913H1129.51V213.233ZM1242.06 213.233L1242.06 143.913H1353.34V213.233H1242.06ZM1129.51 142.643H1240.79V73.3317H1129.51L1129.51 142.643ZM1242.06 142.643V73.3317H1353.34V142.643H1242.06ZM1467.16 73.3317H1578.44V142.643H1467.16L1467.16 73.3317ZM1467.16 143.913H1578.44L1578.44 213.233H1467.16L1467.16 143.913ZM1465.89 213.233L1465.89 143.913L1354.61 143.913L1354.61 213.233L1465.89 213.233ZM1467.16 214.503H1578.44L1578.44 283.818H1467.16V214.503ZM1465.89 283.818V214.503L1354.61 214.503V283.818L1465.89 283.818ZM1467.16 285.088H1578.44L1578.44 354.399H1467.16L1467.16 285.088ZM1465.89 354.399L1465.89 285.088L1354.61 285.088L1354.61 354.399L1465.89 354.399ZM1467.16 355.669H1578.44L1578.44 424.985H1467.16L1467.16 355.669ZM1465.89 424.985L1465.89 355.669L1354.61 355.669V424.985L1465.89 424.985ZM1467.16 426.254H1578.44L1578.44 495.566H1467.16V426.254ZM1465.89 495.566V426.254L1354.61 426.254V495.566L1465.89 495.566ZM1467.16 496.836H1578.44V566.151H1467.16L1467.16 496.836ZM1465.89 566.151L1465.89 496.836L1354.61 496.836L1354.61 566.151H1465.89ZM1467.16 567.421H1578.44L1578.44 636.741H1467.16V567.421ZM1465.89 636.741V567.421H1354.61V636.741H1465.89ZM1467.16 638.011H1578.44L1578.44 707.322H1467.16V638.011ZM1465.89 707.322V638.011H1354.61V707.322H1465.89ZM1467.16 708.592H1578.44V777.907H1467.16L1467.16 708.592ZM1465.89 777.907L1465.89 708.592H1354.61V777.907H1465.89ZM1467.16 779.177H1578.44L1578.44 848.493H1467.16V779.177ZM1465.89 848.493V779.177H1354.61V848.493H1465.89ZM1467.16 849.763H1578.44L1578.44 919.074H1467.16V849.763ZM1465.89 919.074V849.763H1354.61L1354.61 919.074H1465.89ZM1467.16 920.344H1578.44V989.659H1467.16L1467.16 920.344ZM1465.89 989.659L1465.89 920.344H1354.61V989.659H1465.89ZM1465.89 142.643L1465.89 73.3317L1354.61 73.3317V142.643L1465.89 142.643Z" fill="url(#paint0_radial_164_776)" fill-opacity="0.15"/>
<defs>
<radialGradient id="paint0_radial_164_776" cx="0" cy="0" r="1" gradientUnits="userSpaceOnUse" gradientTransform="translate(667.032 551.487) rotate(41.5642) scale(670.012 504.946)">
<stop stop-color="white"/>
<stop offset="1" stop-color="white" stop-opacity="0"/>
</radialGradient>
</defs>
</svg>
